<svg width="510" height="522" viewBox="0 0 510 522" fill="none" xmlns="http://www.w3.org/2000/svg">
<g clip-path="url(#clip0)">
<path d="M226.495 0.203125H228.243L233.774 18.6806H232.106L230.795 14.4166H223.843L222.592 18.6548H220.903L226.495 0.203125ZM230.249 12.5171L227.329 2.78739L224.508 12.543L230.249 12.5171Z" fill="#EAEAEA"/>
<path d="M241.898 19.8176H243.537C243.698 20.6064 244.071 21.2937 244.589 21.754C245.107 22.2142 245.734 22.4167 246.358 22.3244C248.483 22.3244 249.516 20.4249 249.516 17.8148V16.5227C249.128 17.1704 248.626 17.6862 248.052 18.026C247.477 18.3658 246.848 18.5195 246.219 18.4738C245.59 18.451 244.972 18.2643 244.4 17.9248C243.828 17.5853 243.314 17.1 242.889 16.4976C242.464 15.8951 242.136 15.1878 241.925 14.4175C241.714 13.6472 241.624 12.8296 241.66 12.0132C241.624 11.1967 241.714 10.3791 241.925 9.60881C242.136 8.83852 242.464 8.1312 242.889 7.52875C243.314 6.9263 243.828 6.44096 244.4 6.1015C244.972 5.76204 245.59 5.57535 246.219 5.5525C246.856 5.50902 247.492 5.666 248.073 6.01012C248.654 6.35425 249.162 6.8754 249.555 7.52946V5.798H251.015V17.6598C251.015 21.5362 249.337 24.1204 246.358 24.1204C243.865 24.1075 242.226 22.1693 241.898 19.8176ZM243.219 11.9615C243.169 12.5433 243.214 13.1323 243.351 13.69C243.488 14.2477 243.714 14.7616 244.014 15.198C244.313 15.6344 244.681 15.9835 245.092 16.2226C245.502 16.4616 245.947 16.5851 246.397 16.5851C246.847 16.5851 247.292 16.4616 247.703 16.2226C248.114 15.9835 248.481 15.6344 248.781 15.198C249.081 14.7616 249.307 14.2477 249.444 13.69C249.581 13.1323 249.625 12.5433 249.575 11.9615C249.615 11.3773 249.562 10.7888 249.419 10.2326C249.275 9.67654 249.046 9.16481 248.744 8.72945C248.442 8.29409 248.074 7.94446 247.663 7.70241C247.253 7.46036 246.808 7.33111 246.358 7.32272C244.57 7.32272 243.219 9.24799 243.219 11.9615Z" fill="#EAEAEA"/>
<path d="M259.874 6.66376V8.71825C259.629 8.37092 259.331 8.09301 259 7.90184C258.668 7.71066 258.31 7.61031 257.948 7.60702C256.756 7.60702 255.743 8.66657 255.743 11.4834V18.7323H254.243V5.81096H255.703V7.27107C255.931 6.7517 256.263 6.32242 256.663 6.02891C257.064 5.7354 257.518 5.58863 257.977 5.60422C258.334 5.58911 258.689 5.67619 259.016 5.85929C259.344 6.04239 259.637 6.31704 259.874 6.66376V6.66376Z" fill="#EAEAEA"/>
<path d="M261.334 12.2457C261.334 10.5117 261.864 8.84866 262.806 7.62251C263.748 6.39636 265.027 5.70752 266.359 5.70752C267.692 5.70752 268.97 6.39636 269.913 7.62251C270.855 8.84866 271.385 10.5117 271.385 12.2457C271.385 13.9797 270.855 15.6427 269.913 16.8689C268.97 18.095 267.692 18.7839 266.359 18.7839C265.027 18.7839 263.748 18.095 262.806 16.8689C261.864 15.6427 261.334 13.9797 261.334 12.2457ZM262.874 12.2457C262.821 12.8802 262.872 13.5219 263.023 14.1291C263.174 14.7363 263.422 15.2954 263.749 15.77C264.077 16.2446 264.478 16.6242 264.926 16.884C265.374 17.1439 265.859 17.2782 266.35 17.2782C266.84 17.2782 267.325 17.1439 267.773 16.884C268.221 16.6242 268.622 16.2446 268.95 15.77C269.278 15.2954 269.525 14.7363 269.676 14.1291C269.827 13.5219 269.878 12.8802 269.826 12.2457C269.878 11.6112 269.827 10.9695 269.676 10.3623C269.525 9.75512 269.278 9.19604 268.95 8.7214C268.622 8.24676 268.221 7.86719 267.773 7.60735C267.325 7.34752 266.84 7.21324 266.35 7.21324C265.859 7.21324 265.374 7.34752 264.926 7.60735C264.478 7.86719 264.077 8.24676 263.749 8.7214C263.422 9.19604 263.174 9.75512 263.023 10.3623C262.872 10.9695 262.821 11.6112 262.874 12.2457V12.2457Z" fill="#EAEAEA"/>
<path d="M274.424 5.79808L276.748 16.5744L279.131 5.79808H281.118L283.442 16.5744L285.775 5.79808H287.414L284.435 18.7194H282.577L280.124 8.03346L277.691 18.7065H275.804L272.825 5.78516L274.424 5.79808Z" fill="#EAEAEA"/>
<path d="M289.152 1.65027C289.152 1.2596 289.271 0.884933 289.484 0.608686C289.696 0.33244 289.984 0.177246 290.285 0.177246C290.585 0.177246 290.873 0.33244 291.085 0.608686C291.298 0.884933 291.417 1.2596 291.417 1.65027C291.417 2.04095 291.298 2.41562 291.085 2.69186C290.873 2.96811 290.585 3.1233 290.285 3.1233C289.984 3.1233 289.696 2.96811 289.484 2.69186C289.271 2.41562 289.152 2.04095 289.152 1.65027ZM291.049 18.7064H289.549V5.78509H291.049V18.7064Z" fill="#EAEAEA"/>
<path d="M294.297 5.79811H295.756V7.29698C296.14 6.69165 296.627 6.21159 297.179 5.89523C297.731 5.57886 298.332 5.43497 298.935 5.47508C301.407 5.47508 302.848 7.52957 302.848 11.1992V18.7065H301.348V11.0312C301.348 8.61496 300.355 7.29698 298.795 7.29698C296.809 7.29698 295.816 9.27394 295.816 12.3234V18.7065H294.316L294.297 5.79811Z" fill="#EAEAEA"/>
<path d="M305.648 19.8176H307.287C307.466 21.1872 308.479 22.3243 310.117 22.3243C312.253 22.3243 313.285 20.4249 313.285 17.8148V16.5226C312.893 17.1665 312.388 17.6793 311.813 18.0186C311.238 18.3579 310.609 18.514 309.978 18.4738C309.35 18.4509 308.732 18.2642 308.16 17.9247C307.588 17.5853 307.074 17.1 306.649 16.4975C306.224 15.895 305.896 15.1877 305.685 14.4174C305.474 13.6471 305.384 12.8296 305.42 12.0131C305.384 11.1966 305.474 10.379 305.685 9.60876C305.896 8.83847 306.224 8.13115 306.649 7.5287C307.074 6.92624 307.588 6.44091 308.16 6.10145C308.732 5.76199 309.35 5.5753 309.978 5.55245C310.617 5.51331 311.253 5.67216 311.835 6.01588C312.417 6.35961 312.928 6.87838 313.325 7.52941V5.79795H314.785V17.6597C314.785 21.5361 313.097 24.1204 310.117 24.1204C307.605 24.1074 305.946 22.1692 305.648 19.8176ZM306.939 11.9614C306.896 12.5389 306.947 13.1217 307.087 13.6725C307.227 14.2232 307.455 14.7296 307.755 15.1592C308.054 15.5888 308.42 15.932 308.828 16.1669C309.235 16.4019 309.676 16.5232 310.122 16.5232C310.568 16.5232 311.009 16.4019 311.417 16.1669C311.825 15.932 312.19 15.5888 312.49 15.1592C312.79 14.7296 313.017 14.2232 313.158 13.6725C313.298 13.1217 313.348 12.5389 313.305 11.9614C313.362 11.3742 313.322 10.778 313.188 10.2125C313.053 9.64694 312.828 9.125 312.527 8.68129C312.226 8.23757 311.856 7.88223 311.442 7.63883C311.027 7.39544 310.577 7.26957 310.122 7.26957C309.667 7.26957 309.218 7.39544 308.803 7.63883C308.388 7.88223 308.018 8.23757 307.717 8.68129C307.416 9.125 307.191 9.64694 307.057 10.2125C306.923 10.778 306.883 11.3742 306.939 11.9614V11.9614Z" fill="#EAEAEA"/>
<path d="M231.252 55.9068C229.573 55.9068 228.451 54.9118 228.451 52.0304V44.7298H226.465V42.9467H228.451V40.0394L229.951 38.1917V42.9467H232.672V44.7298H229.951V51.7719C229.951 53.3483 230.298 54.1236 231.45 54.1236C231.877 54.1301 232.298 53.9921 232.672 53.7231V55.4933C232.237 55.7994 231.746 55.9426 231.252 55.9068V55.9068Z" fill="#EAEAEA"/>
<path d="M234.182 49.3944C234.215 48.1116 234.537 46.8697 235.109 45.8238C235.681 44.7779 236.477 43.9742 237.398 43.5128C238.319 43.0515 239.323 42.9529 240.287 43.2295C241.25 43.506 242.13 44.1454 242.816 45.0679C243.502 45.9904 243.964 47.1553 244.144 48.4172C244.325 49.6791 244.216 50.9823 243.831 52.1643C243.447 53.3462 242.803 54.3547 241.98 55.0638C241.158 55.773 240.194 56.1516 239.207 56.1523C238.534 56.1475 237.868 55.9677 237.249 55.6237C236.63 55.2796 236.07 54.7781 235.602 54.1486C235.134 53.5191 234.767 52.7743 234.523 51.9579C234.279 51.1415 234.163 50.27 234.182 49.3944V49.3944ZM235.721 49.3944C235.669 50.029 235.72 50.6707 235.871 51.2778C236.022 51.885 236.269 52.4441 236.597 52.9188C236.925 53.3934 237.326 53.773 237.774 54.0328C238.222 54.2926 238.706 54.4269 239.197 54.4269C239.687 54.4269 240.172 54.2926 240.62 54.0328C241.068 53.773 241.469 53.3934 241.797 52.9188C242.125 52.4441 242.372 51.885 242.523 51.2778C242.674 50.6707 242.725 50.029 242.673 49.3944C242.725 48.7599 242.674 48.1182 242.523 47.5111C242.372 46.9039 242.125 46.3448 241.797 45.8701C241.469 45.3955 241.068 45.0159 240.62 44.7561C240.172 44.4963 239.687 44.362 239.197 44.362C238.706 44.362 238.222 44.4963 237.774 44.7561C237.326 45.0159 236.925 45.3955 236.597 45.8701C236.269 46.3448 236.022 46.9039 235.871 47.5111C235.72 48.1182 235.669 48.7599 235.721 49.3944V49.3944Z" fill="#EAEAEA"/>
<path d="M246.358 50.6607V48.6062H251.79V50.6607H246.358Z" fill="#EAEAEA"/>
<path d="M253.955 49.3945C253.955 45.6602 255.882 42.6237 258.673 42.6237C259.312 42.6044 259.946 42.772 260.529 43.1141C261.111 43.4563 261.628 43.9643 262.039 44.6007V37.3777H263.539V55.8552H262.079V54.1495C261.663 54.7939 261.14 55.3085 260.551 55.6551C259.961 56.0018 259.319 56.1717 258.673 56.1523C255.882 56.1523 253.955 53.1804 253.955 49.3945ZM255.494 49.3945C255.494 52.1726 256.726 54.3304 258.752 54.3304C260.778 54.3304 262.079 52.1726 262.079 49.3945C262.079 46.6164 260.808 44.4715 258.752 44.4715C256.696 44.4715 255.494 46.6293 255.494 49.3945Z" fill="#EAEAEA"/>
<path d="M266.22 49.3944C266.254 48.1116 266.576 46.8697 267.148 45.8238C267.72 44.7779 268.516 43.9742 269.437 43.5128C270.357 43.0515 271.362 42.9529 272.326 43.2295C273.289 43.506 274.169 44.1454 274.855 45.0679C275.541 45.9904 276.003 47.1553 276.183 48.4172C276.364 49.6791 276.255 50.9823 275.87 52.1643C275.485 53.3462 274.842 54.3547 274.019 55.0638C273.197 55.773 272.232 56.1516 271.246 56.1523C270.573 56.1475 269.907 55.9677 269.288 55.6237C268.669 55.2796 268.109 54.7781 267.641 54.1486C267.172 53.5191 266.806 52.7743 266.562 51.9579C266.318 51.1415 266.202 50.27 266.22 49.3944ZM267.76 49.3944C267.708 50.029 267.759 50.6707 267.909 51.2778C268.06 51.885 268.308 52.4441 268.636 52.9188C268.963 53.3934 269.364 53.773 269.812 54.0328C270.26 54.2926 270.745 54.4269 271.236 54.4269C271.726 54.4269 272.211 54.2926 272.659 54.0328C273.107 53.773 273.508 53.3934 273.836 52.9188C274.164 52.4441 274.411 51.885 274.562 51.2778C274.713 50.6707 274.764 50.029 274.712 49.3944C274.764 48.7599 274.713 48.1182 274.562 47.5111C274.411 46.9039 274.164 46.3448 273.836 45.8701C273.508 45.3955 273.107 45.0159 272.659 44.7561C272.211 44.4963 271.726 44.362 271.236 44.362C270.745 44.362 270.26 44.4963 269.812 44.7561C269.364 45.0159 268.963 45.3955 268.636 45.8701C268.308 46.3448 268.06 46.9039 267.909 47.5111C267.759 48.1182 267.708 48.7599 267.76 49.3944V49.3944Z" fill="#EAEAEA"/>
<path d="M286.779 55.8552H285.279V37.3777H286.779V55.8552Z" fill="#EAEAEA"/>
<path d="M289.629 38.7991C289.625 38.5042 289.688 38.2144 289.812 37.9667C289.935 37.7189 290.112 37.5245 290.32 37.408C290.528 37.2916 290.759 37.2584 290.982 37.3128C291.204 37.3672 291.41 37.5067 291.572 37.7134C291.733 37.9202 291.844 38.1848 291.89 38.4738C291.936 38.7627 291.914 39.0628 291.828 39.3358C291.742 39.6089 291.596 39.8425 291.408 40.0069C291.22 40.1714 290.998 40.2592 290.771 40.2593C290.622 40.261 290.475 40.2245 290.337 40.1521C290.199 40.0796 290.074 39.9726 289.968 39.837C289.861 39.7014 289.777 39.5399 289.719 39.3619C289.661 39.1838 289.63 38.9926 289.629 38.7991ZM291.516 55.8553H290.056V42.934H291.556L291.516 55.8553Z" fill="#EAEAEA"/>
<path d="M298.925 50.454L297.574 50.0922C295.588 49.5366 294.595 48.3478 294.595 46.4484C294.595 43.8641 296.352 42.572 298.239 42.572C299.154 42.4995 300.054 42.8913 300.75 43.665C301.447 44.4387 301.885 45.5338 301.974 46.7197H300.514C300.423 46.0231 300.133 45.397 299.702 44.9678C299.271 44.5386 298.73 44.3381 298.19 44.4068C296.889 44.4068 296.045 45.1692 296.045 46.3063C296.045 47.172 296.531 47.8051 297.763 48.154L299.123 48.5158C301.11 49.0456 302.162 50.1051 302.162 52.1596C302.162 54.5759 300.663 56.1135 298.369 56.1135C296.263 56.1135 294.485 54.8214 294.138 51.8107H295.618C295.751 52.6009 296.108 53.2969 296.618 53.7611C297.127 54.2253 297.752 54.4238 298.369 54.3175C299.848 54.3175 300.683 53.581 300.683 52.3147C300.673 51.3456 300.166 50.8029 298.925 50.454Z" fill="#EAEAEA"/>
<path d="M308.31 55.9068C306.631 55.9068 305.509 54.9118 305.509 52.0304V44.7298H303.523V42.9467H305.509V40.0394L307.009 38.1917V42.9467H309.73V44.7298H307.009V51.7719C307.009 53.3483 307.356 54.1236 308.508 54.1236C308.935 54.1301 309.356 53.9921 309.73 53.7231V55.4933C309.295 55.7994 308.804 55.9426 308.31 55.9068Z" fill="#EAEAEA"/>
<path d="M247.887 483.77H239.406V465.293H240.945V481.871H247.897L247.887 483.77Z" fill="#EAEAEA"/>
<path d="M249.277 477.309C249.309 476.026 249.63 474.783 250.2 473.735C250.771 472.687 251.567 471.882 252.487 471.418C253.408 470.955 254.413 470.855 255.377 471.13C256.341 471.405 257.221 472.043 257.908 472.965C258.595 473.888 259.059 475.052 259.24 476.315C259.421 477.577 259.313 478.881 258.928 480.064C258.544 481.246 257.9 482.256 257.077 482.965C256.255 483.675 255.29 484.054 254.303 484.054C253.63 484.051 252.964 483.873 252.345 483.53C251.726 483.188 251.166 482.688 250.698 482.059C250.23 481.431 249.863 480.687 249.619 479.871C249.375 479.055 249.259 478.184 249.277 477.309ZM250.817 477.309C250.765 477.944 250.816 478.586 250.966 479.193C251.117 479.8 251.365 480.359 251.693 480.834C252.02 481.308 252.421 481.688 252.869 481.948C253.317 482.208 253.802 482.342 254.293 482.342C254.783 482.342 255.268 482.208 255.716 481.948C256.164 481.688 256.565 481.308 256.893 480.834C257.221 480.359 257.468 479.8 257.619 479.193C257.77 478.586 257.821 477.944 257.769 477.309C257.821 476.675 257.77 476.033 257.619 475.426C257.468 474.819 257.221 474.26 256.893 473.785C256.565 473.311 256.164 472.931 255.716 472.671C255.268 472.411 254.783 472.277 254.293 472.277C253.802 472.277 253.317 472.411 252.869 472.671C252.421 472.931 252.02 473.311 251.693 473.785C251.365 474.26 251.117 474.819 250.966 475.426C250.816 476.033 250.765 476.675 250.817 477.309V477.309Z" fill="#EAEAEA"/>
<path d="M266.161 478.356L264.8 477.994C262.814 477.439 261.821 476.25 261.821 474.35C261.821 471.831 263.589 470.539 265.476 470.539C266.394 470.452 267.301 470.836 268.005 471.609C268.708 472.381 269.151 473.481 269.24 474.673H267.78C267.689 473.976 267.4 473.348 266.969 472.917C266.538 472.486 265.997 472.282 265.456 472.348C264.155 472.348 263.301 473.123 263.301 474.247C263.301 475.126 263.787 475.759 265.029 476.095L266.379 476.469C268.366 476.986 269.418 478.046 269.418 480.1C269.418 482.53 267.919 484.054 265.634 484.054C263.529 484.054 261.741 482.762 261.404 479.764H262.874C263.014 480.552 263.374 481.243 263.884 481.704C264.395 482.165 265.018 482.363 265.634 482.258C267.114 482.258 267.949 481.522 267.949 480.255C267.909 479.26 267.402 478.705 266.161 478.356Z" fill="#EAEAEA"/>
<path d="M271.693 466.662C271.691 466.368 271.756 466.079 271.88 465.833C272.005 465.587 272.182 465.395 272.391 465.28C272.599 465.166 272.829 465.134 273.052 465.19C273.274 465.246 273.478 465.387 273.639 465.594C273.8 465.801 273.91 466.066 273.955 466.355C273.999 466.643 273.977 466.943 273.891 467.215C273.805 467.487 273.659 467.72 273.471 467.884C273.283 468.048 273.061 468.135 272.835 468.135C272.685 468.137 272.537 468.1 272.399 468.027C272.26 467.954 272.134 467.845 272.028 467.708C271.922 467.571 271.837 467.408 271.78 467.229C271.722 467.049 271.693 466.857 271.693 466.662ZM273.58 483.718H272.08V470.797H273.58V483.718Z" fill="#EAEAEA"/>
<path d="M276.837 470.849H278.297V472.348C278.683 471.746 279.171 471.27 279.722 470.956C280.274 470.642 280.874 470.499 281.475 470.539C283.948 470.539 285.388 472.593 285.388 476.25V483.77H283.888V476.095C283.888 473.666 282.895 472.348 281.336 472.348C279.35 472.348 278.357 474.325 278.357 477.387V483.77H276.857L276.837 470.849Z" fill="#EAEAEA"/>
<path d="M288.189 484.868H289.827C290.006 486.238 291.019 487.375 292.668 487.375C294.793 487.375 295.826 485.476 295.826 482.866V481.573C295.434 482.217 294.929 482.73 294.354 483.069C293.779 483.409 293.15 483.565 292.519 483.524C291.202 483.524 289.939 482.844 289.008 481.632C288.076 480.421 287.553 478.777 287.553 477.064C287.553 475.35 288.076 473.707 289.008 472.496C289.939 471.284 291.202 470.603 292.519 470.603C293.158 470.558 293.796 470.714 294.379 471.058C294.961 471.402 295.472 471.924 295.866 472.58V470.913H297.326V482.775C297.326 486.651 295.647 489.236 292.668 489.236C290.155 489.171 288.507 487.336 288.189 484.868ZM289.5 477.012C289.457 477.59 289.507 478.173 289.647 478.723C289.788 479.274 290.015 479.78 290.315 480.21C290.615 480.64 290.98 480.983 291.388 481.218C291.796 481.453 292.237 481.574 292.683 481.574C293.129 481.574 293.57 481.453 293.977 481.218C294.385 480.983 294.751 480.64 295.05 480.21C295.35 479.78 295.578 479.274 295.718 478.723C295.858 478.173 295.909 477.59 295.866 477.012C295.922 476.425 295.882 475.829 295.748 475.263C295.614 474.698 295.389 474.176 295.088 473.732C294.787 473.288 294.417 472.933 294.002 472.69C293.587 472.446 293.138 472.32 292.683 472.32C292.228 472.32 291.778 472.446 291.364 472.69C290.949 472.933 290.579 473.288 290.278 473.732C289.977 474.176 289.752 474.698 289.618 475.263C289.483 475.829 289.443 476.425 289.5 477.012V477.012Z" fill="#EAEAEA"/>
<path d="M217 508.01H218.46V509.509C218.783 508.917 219.215 508.441 219.717 508.125C220.218 507.809 220.774 507.663 221.33 507.7C221.917 507.665 222.5 507.84 223.015 508.207C223.53 508.574 223.957 509.119 224.25 509.781C224.592 509.106 225.063 508.559 225.617 508.195C226.171 507.83 226.788 507.659 227.408 507.7C230.02 507.7 231.202 509.755 231.202 513.412V520.932H229.703V513.256C229.703 510.827 228.888 509.509 227.389 509.509C225.889 509.509 224.836 511.099 224.836 513.864V520.932H223.337V513.386C223.337 510.801 222.532 509.509 221.092 509.509C219.453 509.509 218.5 511.124 218.5 513.864V520.932H217V508.01Z" fill="#EAEAEA"/>
<path d="M233.834 514.471C233.865 513.188 234.186 511.944 234.757 510.897C235.328 509.849 236.123 509.043 237.044 508.58C237.964 508.117 238.969 508.016 239.934 508.291C240.898 508.567 241.778 509.205 242.465 510.127C243.152 511.049 243.615 512.214 243.797 513.476C243.978 514.739 243.87 516.043 243.485 517.225C243.1 518.408 242.457 519.417 241.634 520.127C240.811 520.837 239.846 521.215 238.859 521.216C238.187 521.211 237.522 521.032 236.904 520.689C236.285 520.345 235.726 519.845 235.258 519.217C234.79 518.589 234.423 517.845 234.178 517.031C233.934 516.216 233.817 515.346 233.834 514.471V514.471ZM235.373 514.471C235.429 515.352 235.681 516.192 236.098 516.889C236.515 517.586 237.079 518.111 237.721 518.398C238.364 518.685 239.056 518.722 239.714 518.506C240.373 518.289 240.968 517.828 241.428 517.178C241.889 516.528 242.193 515.718 242.305 514.847C242.417 513.976 242.332 513.081 242.059 512.271C241.787 511.462 241.339 510.774 240.771 510.29C240.203 509.806 239.538 509.549 238.859 509.548C238.376 509.55 237.899 509.681 237.456 509.934C237.014 510.187 236.617 510.557 236.29 511.019C235.962 511.481 235.712 512.026 235.554 512.62C235.397 513.214 235.335 513.845 235.373 514.471V514.471Z" fill="#EAEAEA"/>
<path d="M246.596 508.011H248.056V509.509C248.38 508.917 248.814 508.44 249.317 508.124C249.821 507.807 250.378 507.662 250.936 507.7C251.521 507.667 252.102 507.844 252.615 508.211C253.128 508.578 253.554 509.121 253.846 509.781C254.191 509.107 254.664 508.561 255.219 508.197C255.774 507.832 256.393 507.661 257.014 507.7C259.626 507.7 260.798 509.755 260.798 513.412V520.932H259.268V513.257C259.268 510.827 258.464 509.509 256.964 509.509C255.465 509.509 254.412 511.099 254.412 513.864V520.932H252.912V513.386C252.912 510.802 252.098 509.509 250.658 509.509C249.019 509.509 248.066 511.125 248.066 513.864V520.932H246.566L246.596 508.011Z" fill="#EAEAEA"/>
<path d="M272.696 515.066H264.979C264.97 515.634 265.048 516.199 265.21 516.727C265.372 517.255 265.614 517.736 265.922 518.14C266.23 518.544 266.597 518.863 267.001 519.078C267.406 519.294 267.839 519.401 268.276 519.394C268.875 519.423 269.466 519.204 269.962 518.767C270.458 518.33 270.835 517.699 271.037 516.965H272.596C272.365 518.213 271.808 519.318 271.02 520.091C270.232 520.864 269.262 521.257 268.276 521.203C265.406 521.203 263.44 518.464 263.44 514.536C263.44 510.608 265.197 507.688 268.157 507.688C271.444 507.688 272.716 511.189 272.716 514.148C272.716 514.613 272.696 515.066 272.696 515.066ZM268.207 509.535C267.412 509.524 266.645 509.91 266.065 510.615C265.484 511.32 265.134 512.289 265.088 513.321H271.186C271.189 512.815 271.113 512.314 270.964 511.847C270.814 511.38 270.594 510.957 270.315 510.604C270.037 510.25 269.707 509.973 269.345 509.79C268.982 509.606 268.595 509.52 268.207 509.535V509.535Z" fill="#EAEAEA"/>
<path d="M275.477 508.01H276.936V509.509C277.322 508.908 277.81 508.431 278.362 508.117C278.913 507.803 279.513 507.661 280.115 507.7C282.587 507.7 284.027 509.755 284.027 513.412V520.932H282.528V513.256C282.528 510.827 281.535 509.509 279.975 509.509C277.989 509.509 276.996 511.499 276.996 514.549V520.932H275.496L275.477 508.01Z" fill="#EAEAEA"/>
<path d="M290.453 520.932C288.775 520.932 287.662 519.924 287.662 517.055V509.729H285.676V508.01H287.662V505.116L289.162 503.268V508.01H291.873V509.807H289.162V516.849C289.162 518.425 289.5 519.187 290.652 519.187C291.078 519.194 291.498 519.061 291.873 518.8V520.557C291.437 520.854 290.944 520.984 290.453 520.932V520.932Z" fill="#EAEAEA"/>
<path d="M302.321 520.932H300.861V519.407C300.488 520.008 300.011 520.485 299.469 520.8C298.927 521.114 298.335 521.257 297.743 521.216C295.19 521.216 294.018 519.187 294.018 515.531V508.01H295.518V515.608C295.518 518.05 296.362 519.381 297.951 519.381C299.868 519.381 300.822 517.456 300.822 514.394V508.01H302.321V520.932Z" fill="#EAEAEA"/>
<path d="M305.579 508.011H307.039V509.509C307.363 508.917 307.797 508.44 308.3 508.124C308.804 507.807 309.36 507.662 309.919 507.7C310.505 507.665 311.088 507.84 311.603 508.207C312.118 508.574 312.546 509.119 312.839 509.781C313.18 509.106 313.651 508.56 314.205 508.195C314.759 507.83 315.377 507.659 315.997 507.7C318.609 507.7 319.781 509.755 319.781 513.412V520.932H318.281V513.257C318.281 510.827 317.477 509.509 315.977 509.509C314.477 509.509 313.425 511.099 313.425 513.864V520.932H311.905V513.386C311.905 510.802 311.091 509.509 309.651 509.509C308.012 509.509 307.058 511.125 307.058 513.864V520.932H305.559L305.579 508.011Z" fill="#EAEAEA"/>
<path d="M410.484 224.194V232.657H408.945V214.18H417.983V216.079H410.484V222.295H417.536V224.194H410.484Z" fill="#EAEAEA"/>
<path d="M428.868 226.804H421.151C421.143 227.373 421.223 227.939 421.386 228.467C421.549 228.995 421.792 229.475 422.1 229.879C422.409 230.283 422.776 230.602 423.181 230.817C423.586 231.032 424.02 231.14 424.458 231.133C425.055 231.161 425.644 230.941 426.139 230.504C426.634 230.067 427.009 229.437 427.209 228.704H428.768C428.539 229.951 427.983 231.055 427.197 231.828C426.411 232.601 425.443 232.995 424.458 232.942C421.578 232.942 419.611 230.202 419.611 226.274C419.611 222.346 421.379 219.426 424.339 219.426C427.616 219.426 428.897 222.928 428.897 225.887C428.887 226.326 428.868 226.804 428.868 226.804ZM424.329 221.274C423.534 221.262 422.765 221.648 422.183 222.353C421.601 223.058 421.249 224.027 421.2 225.06H427.368C427.37 224.548 427.291 224.04 427.138 223.569C426.984 223.097 426.758 222.671 426.474 222.317C426.189 221.963 425.852 221.688 425.484 221.508C425.115 221.329 424.722 221.249 424.329 221.274V221.274Z" fill="#EAEAEA"/>
<path d="M440.328 226.804H432.612C432.602 227.374 432.681 227.94 432.844 228.469C433.006 228.998 433.249 229.479 433.558 229.883C433.867 230.287 434.235 230.606 434.641 230.821C435.046 231.035 435.481 231.142 435.919 231.133C436.516 231.161 437.105 230.941 437.6 230.504C438.095 230.067 438.47 229.437 438.67 228.704H440.229C440 229.951 439.444 231.055 438.658 231.828C437.872 232.601 436.903 232.995 435.919 232.942C433.068 232.942 431.082 230.202 431.082 226.326C431.082 222.45 432.85 219.478 435.8 219.478C439.087 219.478 440.358 222.979 440.358 225.938C440.348 226.326 440.328 226.804 440.328 226.804ZM435.79 221.274C434.999 221.265 434.236 221.649 433.657 222.348C433.077 223.047 432.724 224.008 432.671 225.034H438.829C438.829 224.523 438.75 224.018 438.595 223.549C438.441 223.079 438.215 222.656 437.93 222.304C437.646 221.952 437.309 221.68 436.941 221.502C436.573 221.325 436.182 221.248 435.79 221.274V221.274Z" fill="#EAEAEA"/>
<path d="M444.599 232.657H443.099V214.18H444.599V232.657Z" fill="#EAEAEA"/>
<path d="M447.459 215.601C447.459 215.31 447.526 215.025 447.65 214.783C447.774 214.541 447.951 214.352 448.158 214.24C448.365 214.129 448.593 214.1 448.812 214.156C449.032 214.213 449.234 214.354 449.392 214.56C449.551 214.766 449.659 215.028 449.702 215.314C449.746 215.6 449.723 215.896 449.638 216.165C449.552 216.434 449.407 216.664 449.221 216.826C449.034 216.988 448.816 217.074 448.592 217.074C448.291 217.074 448.003 216.919 447.791 216.643C447.578 216.367 447.459 215.992 447.459 215.601ZM449.337 232.657H447.837V219.736H449.337V232.657Z" fill="#EAEAEA"/>
<path d="M452.594 219.736H454.054V221.248C454.438 220.643 454.925 220.164 455.477 219.847C456.029 219.531 456.63 219.387 457.232 219.426C459.705 219.426 461.145 221.48 461.145 225.15V232.657H459.645V225.034C459.645 222.617 458.652 221.3 457.093 221.3C455.106 221.3 454.113 223.276 454.113 226.326V232.709H452.614L452.594 219.736Z" fill="#EAEAEA"/>
<path d="M463.945 233.769H465.584C465.745 234.562 466.121 235.253 466.643 235.714C467.165 236.175 467.798 236.374 468.424 236.275C470.55 236.275 471.583 234.376 471.583 231.766V230.474C471.195 231.121 470.693 231.637 470.118 231.977C469.544 232.317 468.915 232.471 468.285 232.425C466.968 232.425 465.705 231.744 464.774 230.533C463.843 229.321 463.32 227.678 463.32 225.964C463.32 224.251 463.843 222.607 464.774 221.396C465.705 220.184 466.968 219.504 468.285 219.504C468.922 219.465 469.557 219.625 470.137 219.969C470.717 220.312 471.226 220.831 471.622 221.481V219.736H473.082V231.598C473.082 235.474 471.404 238.059 468.424 238.059C465.912 238.059 464.273 236.159 463.945 233.769ZM465.266 225.913C465.224 226.49 465.273 227.072 465.412 227.624C465.55 228.175 465.775 228.683 466.072 229.116C466.368 229.549 466.73 229.898 467.135 230.14C467.54 230.383 467.979 230.514 468.424 230.525C469.303 230.405 470.115 229.865 470.706 229.011C471.297 228.157 471.623 227.049 471.623 225.9C471.623 224.751 471.297 223.642 470.706 222.788C470.115 221.934 469.303 221.395 468.424 221.274C466.617 221.274 465.266 223.147 465.266 225.913V225.913Z" fill="#EAEAEA"/>
<path d="M480.481 227.256L479.121 226.882C477.134 226.326 476.141 225.15 476.141 223.251C476.141 220.666 477.909 219.374 479.786 219.374C480.705 219.288 481.614 219.671 482.319 220.444C483.024 221.216 483.469 222.316 483.56 223.509H482.1C482.007 222.812 481.715 222.185 481.282 221.756C480.849 221.327 480.308 221.127 479.766 221.196C478.475 221.196 477.621 221.959 477.621 223.096C477.621 223.961 478.108 224.595 479.349 224.931L480.7 225.305C482.686 225.835 483.739 226.882 483.739 228.936C483.739 231.365 482.239 232.89 479.955 232.89C477.849 232.89 476.062 231.598 475.714 228.6H477.194C477.332 229.39 477.691 230.084 478.202 230.548C478.712 231.011 479.337 231.211 479.955 231.107C481.435 231.107 482.259 230.37 482.259 229.104C482.219 228.148 481.733 227.618 480.481 227.256Z" fill="#EAEAEA"/>
<path d="M492.071 226.197C492.102 224.913 492.423 223.67 492.994 222.622C493.565 221.575 494.36 220.769 495.281 220.306C496.201 219.842 497.206 219.742 498.171 220.017C499.135 220.292 500.015 220.931 500.702 221.853C501.389 222.775 501.852 223.94 502.034 225.202C502.215 226.464 502.107 227.768 501.722 228.951C501.338 230.134 500.694 231.143 499.871 231.852C499.049 232.562 498.083 232.941 497.096 232.942C496.424 232.937 495.759 232.757 495.141 232.414C494.522 232.071 493.963 231.571 493.495 230.942C493.027 230.314 492.66 229.571 492.415 228.756C492.171 227.941 492.054 227.071 492.071 226.197ZM493.61 226.197C493.666 227.077 493.918 227.917 494.335 228.615C494.752 229.312 495.316 229.836 495.958 230.123C496.601 230.411 497.293 230.448 497.952 230.231C498.61 230.015 499.205 229.553 499.666 228.904C500.126 228.254 500.43 227.444 500.542 226.572C500.654 225.701 500.569 224.806 500.297 223.997C500.024 223.188 499.576 222.499 499.008 222.016C498.44 221.532 497.775 221.274 497.096 221.274C496.617 221.282 496.143 221.419 495.706 221.675C495.268 221.931 494.876 222.302 494.553 222.763C494.23 223.225 493.983 223.767 493.828 224.358C493.673 224.949 493.612 225.574 493.65 226.197H493.61Z" fill="#EAEAEA"/>
<path d="M508.458 214.18C508.982 214.127 509.505 214.285 509.958 214.632V216.467C509.526 216.154 509.041 215.989 508.547 215.989C507.395 215.989 506.79 216.88 506.79 218.754V219.723H509.441V221.519H506.76V232.644H505.26V221.519H503.333V219.736H505.26V218.767C505.26 215.498 506.7 214.18 508.458 214.18Z" fill="#EAEAEA"/>
<path d="M408.568 263.345C408.601 262.062 408.923 260.821 409.495 259.775C410.067 258.729 410.863 257.925 411.784 257.464C412.705 257.002 413.709 256.904 414.673 257.18C415.636 257.457 416.516 258.096 417.202 259.019C417.888 259.941 418.35 261.106 418.531 262.368C418.711 263.63 418.602 264.933 418.217 266.115C417.833 267.297 417.189 268.306 416.367 269.015C415.544 269.724 414.58 270.103 413.593 270.103C412.92 270.098 412.254 269.919 411.635 269.575C411.016 269.231 410.456 268.729 409.988 268.1C409.52 267.47 409.153 266.725 408.909 265.909C408.665 265.092 408.549 264.221 408.568 263.345ZM410.107 263.345C410.163 264.226 410.415 265.066 410.832 265.763C411.249 266.461 411.813 266.985 412.455 267.272C413.097 267.559 413.79 267.597 414.448 267.38C415.106 267.164 415.702 266.702 416.162 266.052C416.622 265.403 416.927 264.593 417.039 263.721C417.151 262.85 417.066 261.955 416.793 261.146C416.521 260.336 416.073 259.648 415.505 259.164C414.936 258.681 414.272 258.423 413.593 258.422C413.109 258.422 412.631 258.552 412.188 258.805C411.745 259.057 411.348 259.426 411.02 259.889C410.692 260.352 410.442 260.898 410.285 261.493C410.128 262.088 410.067 262.718 410.107 263.345Z" fill="#EAEAEA"/>
<path d="M427.11 256.898H428.758L425.044 269.819H423.465L419.76 256.898H421.399L424.259 267.441L427.11 256.898Z" fill="#EAEAEA"/>
<path d="M439.276 263.953H431.559C431.55 264.522 431.628 265.089 431.791 265.618C431.954 266.147 432.197 266.628 432.505 267.032C432.814 267.436 433.182 267.755 433.588 267.969C433.993 268.184 434.428 268.29 434.866 268.281C435.464 268.31 436.053 268.09 436.547 267.653C437.042 267.216 437.417 266.585 437.617 265.852H439.176C438.947 267.1 438.392 268.206 437.606 268.982C436.82 269.757 435.852 270.153 434.866 270.103C431.986 270.103 430.02 267.351 430.02 263.423C430.02 259.495 431.787 256.575 434.747 256.575C438.024 256.575 439.305 260.076 439.305 263.035C439.305 263.513 439.276 263.953 439.276 263.953ZM434.747 258.422C433.95 258.411 433.18 258.799 432.598 259.506C432.015 260.214 431.664 261.186 431.619 262.221H437.786C437.789 261.708 437.712 261.199 437.559 260.726C437.405 260.253 437.18 259.826 436.895 259.47C436.611 259.115 436.273 258.838 435.904 258.658C435.535 258.478 435.141 258.398 434.747 258.422V258.422Z" fill="#EAEAEA"/>
<path d="M447.688 257.789V259.818C447.444 259.472 447.148 259.194 446.818 259.003C446.488 258.812 446.132 258.711 445.771 258.707C444.569 258.707 443.556 259.766 443.556 262.583V269.832H442.056V256.911H443.516V258.384C443.744 257.864 444.076 257.435 444.477 257.142C444.877 256.848 445.331 256.701 445.791 256.717C446.148 256.703 446.503 256.792 446.831 256.978C447.159 257.163 447.451 257.44 447.688 257.789V257.789Z" fill="#EAEAEA"/>
<path d="M450.727 256.898L453.06 267.674L455.384 256.898H457.371L459.705 267.674L462.038 256.898H463.677L460.698 269.819H458.89L456.437 259.146L453.924 269.806H452.047L449.068 256.885L450.727 256.898Z" fill="#EAEAEA"/>
<path d="M465.842 251.329H467.342V258.397C467.717 257.791 468.197 257.311 468.742 256.994C469.288 256.677 469.884 256.533 470.48 256.575C472.953 256.575 474.393 258.629 474.393 262.299V269.806H472.894V262.131C472.894 259.715 471.9 258.397 470.341 258.397C468.355 258.397 467.362 260.374 467.362 263.423V269.806H465.842V251.329Z" fill="#EAEAEA"/>
<path d="M486.271 263.953H478.545C478.537 264.522 478.616 265.087 478.78 265.616C478.943 266.144 479.186 266.624 479.494 267.028C479.803 267.431 480.17 267.75 480.575 267.966C480.98 268.181 481.414 268.288 481.852 268.281C482.449 268.31 483.038 268.09 483.533 267.653C484.028 267.216 484.402 266.585 484.603 265.852H486.162C485.933 267.1 485.378 268.206 484.592 268.982C483.806 269.757 482.837 270.153 481.852 270.103C478.972 270.103 477.005 267.351 477.005 263.423C477.005 259.495 478.773 256.575 481.732 256.575C485.01 256.575 486.291 260.076 486.291 263.035C486.291 263.513 486.271 263.953 486.271 263.953ZM481.732 258.422C480.936 258.411 480.166 258.799 479.583 259.506C479.001 260.214 478.65 261.186 478.604 262.221H484.772C484.775 261.708 484.697 261.199 484.544 260.726C484.391 260.253 484.165 259.826 483.881 259.47C483.596 259.115 483.259 258.838 482.89 258.658C482.52 258.478 482.127 258.398 481.732 258.422V258.422Z" fill="#EAEAEA"/>
<path d="M490.532 269.806H489.032V251.329H490.532V269.806Z" fill="#EAEAEA"/>
<path d="M493.759 256.898H495.219V258.397C495.542 257.801 495.975 257.321 496.479 257.002C496.982 256.683 497.54 256.536 498.1 256.575C498.684 256.542 499.265 256.718 499.778 257.085C500.291 257.452 500.717 257.995 501.009 258.655C501.354 257.981 501.827 257.436 502.382 257.071C502.938 256.706 503.556 256.535 504.178 256.575C506.79 256.575 507.961 258.629 507.961 262.299V269.806H506.462V262.131C506.462 259.715 505.657 258.397 504.158 258.397C502.658 258.397 501.595 259.921 501.595 262.738V269.806H500.106V262.273C500.106 259.689 499.291 258.397 497.851 258.397C496.213 258.397 495.259 259.999 495.259 262.738V269.806H493.759V256.898Z" fill="#EAEAEA"/>
<path d="M19.4044 224.788L17.7955 224.362C15.6106 223.78 13.6442 222.333 13.6442 219.323C13.6442 216.002 16.0178 214.154 18.5106 214.154C19.7998 214.037 21.072 214.59 22.0478 215.693C23.0235 216.795 23.6231 218.356 23.7147 220.033H22.1753C22.138 219.452 22.0121 218.886 21.8049 218.369C21.5977 217.851 21.3134 217.393 20.9686 217.02C20.6238 216.647 20.2253 216.367 19.7965 216.197C19.3676 216.027 18.917 215.969 18.4709 216.028C16.5442 216.028 15.1836 217.255 15.1836 219.206C15.1836 221.157 16.4647 221.894 18.163 222.372L19.6627 222.773C22.2945 223.457 23.9431 225.008 23.9431 227.941C23.9431 230.874 22.0363 233.213 18.8582 233.213C17.4411 233.34 16.0416 232.745 14.9555 231.554C13.8695 230.363 13.182 228.669 13.0384 226.83H14.5778C14.7121 228.174 15.2389 229.398 16.0489 230.25C16.8589 231.102 17.8898 231.515 18.9277 231.404C20.914 231.404 22.4534 230.267 22.4534 228.083C22.4435 226.106 21.1424 225.254 19.4044 224.788Z" fill="#EAEAEA"/>
<path d="M26.2969 215.989C26.2969 215.695 26.3639 215.408 26.4894 215.163C26.6149 214.919 26.7933 214.729 27.002 214.616C27.2108 214.504 27.4405 214.474 27.6621 214.531C27.8836 214.589 28.0872 214.73 28.247 214.938C28.4067 215.146 28.5155 215.411 28.5596 215.699C28.6037 215.987 28.581 216.286 28.4946 216.558C28.4081 216.829 28.2617 217.061 28.0738 217.224C27.886 217.388 27.6651 217.475 27.4392 217.475C27.2888 217.477 27.1397 217.439 27.0005 217.365C26.8613 217.291 26.7348 217.182 26.6285 217.043C26.5221 216.905 26.4381 216.741 26.3811 216.56C26.3242 216.379 26.2955 216.184 26.2969 215.989ZM28.1842 233.045H26.6843V220.124H28.1842V233.045Z" fill="#EAEAEA"/>
<path d="M34.9074 233.032C33.229 233.032 32.1167 232.037 32.1167 229.156V221.829H30.1304V220.046H32.1167V217.139L33.6163 215.291V220.046H36.3276V221.829H33.6163V228.91C33.6163 230.487 33.954 231.262 35.1159 231.262C35.5397 231.267 35.9572 231.129 36.3276 230.861V232.632C35.8917 232.933 35.4001 233.072 34.9074 233.032Z" fill="#EAEAEA"/>
<path d="M42.6142 233.032C40.9358 233.032 39.8235 232.037 39.8235 229.156V221.829H37.8372V220.046H39.8235V217.139L41.3132 215.291V220.046H44.0344V221.829H41.3132V228.91C41.3132 230.487 41.6608 231.262 42.8128 231.262C43.2398 231.269 43.6608 231.13 44.0344 230.861V232.632C43.5985 232.933 43.107 233.072 42.6142 233.032Z" fill="#EAEAEA"/>
<path d="M45.8519 215.989C45.8519 215.694 45.9191 215.407 46.0451 215.162C46.171 214.917 46.35 214.727 46.5594 214.615C46.7687 214.503 46.9989 214.474 47.2207 214.532C47.4426 214.591 47.6461 214.734 47.8055 214.943C47.9648 215.152 48.0728 215.418 48.1158 215.707C48.1587 215.996 48.1347 216.295 48.0467 216.566C47.9587 216.838 47.8108 217.069 47.6216 217.231C47.4324 217.392 47.2106 217.477 46.9843 217.475C46.8347 217.475 46.6866 217.436 46.5486 217.361C46.4106 217.287 46.2853 217.177 46.18 217.039C46.0747 216.901 45.9915 216.737 45.9352 216.557C45.8789 216.376 45.8505 216.183 45.8519 215.989ZM47.7392 233.045H46.2393V220.124H47.7293L47.7392 233.045Z" fill="#EAEAEA"/>
<path d="M50.9963 220.072H52.4563V221.571C52.8399 220.966 53.3272 220.486 53.8791 220.169C54.4309 219.853 55.032 219.709 55.6343 219.749C58.1072 219.749 59.5473 221.803 59.5473 225.473V232.98H58.0477V225.318C58.0477 222.889 57.0545 221.571 55.4953 221.571C53.509 221.571 52.5158 223.548 52.5158 226.61V232.98H50.9963V220.072Z" fill="#EAEAEA"/>
<path d="M62.348 234.079H63.9866C64.1654 235.448 65.1784 236.586 66.8171 236.586C68.9524 236.586 69.9852 234.686 69.9852 232.076V230.784C69.5929 231.428 69.0882 231.941 68.513 232.28C67.9379 232.619 67.3088 232.775 66.6781 232.735C65.3611 232.735 64.098 232.054 63.1668 230.843C62.2355 229.631 61.7123 227.988 61.7123 226.274C61.7123 224.561 62.2355 222.918 63.1668 221.706C64.098 220.494 65.3611 219.814 66.6781 219.814C67.3164 219.775 67.9528 219.933 68.5347 220.277C69.1166 220.621 69.6274 221.14 70.0249 221.791V220.137H71.4849V231.998C71.4849 235.875 69.7965 238.459 66.8171 238.459C64.3144 238.382 62.626 236.495 62.348 234.079ZM63.6192 226.236C63.5762 226.813 63.6265 227.396 63.7669 227.947C63.9073 228.497 64.1347 229.004 64.4344 229.433C64.7342 229.863 65.0997 230.206 65.5075 230.441C65.9152 230.676 66.3562 230.797 66.8022 230.797C67.2482 230.797 67.6892 230.676 68.0969 230.441C68.5047 230.206 68.8702 229.863 69.17 229.433C69.4697 229.004 69.6971 228.497 69.8375 227.947C69.9779 227.396 70.0282 226.813 69.9852 226.236C70.0417 225.648 70.0016 225.052 69.8674 224.487C69.7333 223.921 69.5082 223.399 69.2072 222.955C68.9062 222.512 68.5361 222.156 68.1214 221.913C67.7068 221.67 67.2571 221.544 66.8022 221.544C66.3473 221.544 65.8976 221.67 65.483 221.913C65.0683 222.156 64.6982 222.512 64.3972 222.955C64.0962 223.399 63.8711 223.921 63.737 224.487C63.6028 225.052 63.5627 225.648 63.6192 226.236V226.236Z" fill="#EAEAEA"/>
<path d="M80.3635 226.52C80.3967 225.237 80.7194 223.995 81.2913 222.949C81.8633 221.903 82.6592 221.099 83.5799 220.638C84.5005 220.177 85.5052 220.078 86.4687 220.355C87.4321 220.631 88.3116 221.271 88.9977 222.193C89.6837 223.116 90.1458 224.281 90.3264 225.542C90.507 226.804 90.3981 228.108 90.0133 229.29C89.6285 230.471 88.9848 231.48 88.1624 232.189C87.3401 232.898 86.3755 233.277 85.3889 233.278C84.7157 233.273 84.05 233.093 83.4309 232.749C82.8118 232.405 82.2518 231.903 81.7837 231.274C81.3156 230.644 80.9488 229.9 80.705 229.083C80.4611 228.267 80.345 227.395 80.3635 226.52V226.52ZM81.9029 226.52C81.9589 227.4 82.2107 228.24 82.6277 228.938C83.0446 229.635 83.6087 230.159 84.2509 230.446C84.8931 230.734 85.5856 230.771 86.244 230.554C86.9023 230.338 87.4979 229.877 87.958 229.227C88.4181 228.577 88.7228 227.767 88.8348 226.896C88.9469 226.024 88.8615 225.129 88.589 224.32C88.3165 223.511 87.8688 222.822 87.3005 222.339C86.7322 221.855 86.0679 221.597 85.3889 221.597C84.9053 221.596 84.427 221.726 83.9841 221.979C83.5412 222.231 83.1434 222.601 82.8158 223.063C82.4882 223.526 82.2379 224.072 82.0808 224.667C81.9236 225.262 81.8631 225.893 81.9029 226.52Z" fill="#EAEAEA"/>
<path d="M93.1155 220.072H94.5755V221.571C94.9617 220.966 95.4508 220.487 96.0042 220.17C96.5575 219.854 97.1598 219.71 97.7635 219.749C100.226 219.749 101.667 221.803 101.667 225.473V232.98H100.167V225.318C100.167 222.889 99.1737 221.571 97.6145 221.571C95.6282 221.571 94.6351 223.548 94.6351 226.61V232.98H93.1155V220.072Z" fill="#EAEAEA"/>
<path d="M114.438 233.032C112.75 233.032 111.638 232.037 111.638 229.156V221.829H109.651V220.046H111.638V217.139L113.137 215.291V220.046H115.859V221.829H113.137V228.91C113.137 230.487 113.485 231.262 114.637 231.262C115.064 231.269 115.485 231.13 115.859 230.861V232.632C115.423 232.933 114.931 233.072 114.438 233.032V233.032Z" fill="#EAEAEA"/>
<path d="M118.113 214.503H119.613V221.571C119.988 220.966 120.468 220.485 121.013 220.168C121.559 219.851 122.154 219.708 122.751 219.749C125.224 219.749 126.664 221.803 126.664 225.473V232.98H125.194V225.318C125.194 222.889 124.201 221.571 122.642 221.571C120.655 221.571 119.662 223.548 119.662 226.61V232.98H118.163L118.113 214.503Z" fill="#EAEAEA"/>
<path d="M138.532 227.127H130.815C130.802 227.701 130.878 228.273 131.039 228.807C131.201 229.341 131.444 229.828 131.754 230.236C132.064 230.645 132.435 230.967 132.844 231.183C133.253 231.399 133.691 231.505 134.132 231.495C134.732 231.526 135.323 231.307 135.819 230.87C136.316 230.433 136.692 229.8 136.893 229.065H138.453C138.223 230.316 137.667 231.424 136.879 232.199C136.09 232.975 135.12 233.37 134.132 233.316C131.262 233.316 129.296 230.577 129.296 226.649C129.296 222.721 131.054 219.788 134.013 219.788C137.301 219.788 138.572 223.29 138.572 226.248C138.552 226.688 138.532 227.127 138.532 227.127ZM133.993 221.597C133.197 221.585 132.429 221.974 131.848 222.682C131.267 223.389 130.918 224.362 130.875 225.396H137.032C137.037 224.882 136.961 224.372 136.808 223.898C136.655 223.425 136.43 222.996 136.145 222.64C135.86 222.285 135.522 222.008 135.152 221.829C134.782 221.649 134.388 221.57 133.993 221.597V221.597Z" fill="#EAEAEA"/>
<path d="M8.00317 265.969H9.52268C9.30993 267.271 8.74927 268.434 7.9402 269.25C7.13114 270.066 6.126 270.483 5.10319 270.426C3.76361 270.35 2.49833 269.604 1.57114 268.344C0.64395 267.084 0.126404 265.407 0.126404 263.662C0.126404 261.918 0.64395 260.24 1.57114 258.98C2.49833 257.72 3.76361 256.974 5.10319 256.898C6.14469 256.866 7.16128 257.314 7.97354 258.163C8.78579 259.012 9.34149 260.207 9.54254 261.537H7.90385C7.74266 260.712 7.3685 259.985 6.84412 259.477C6.31975 258.969 5.67703 258.71 5.02374 258.746C4.07687 258.855 3.19578 259.422 2.55401 260.334C1.91225 261.246 1.55631 262.438 1.55631 263.675C1.55631 264.912 1.91225 266.104 2.55401 267.016C3.19578 267.928 4.07687 268.495 5.02374 268.604C5.67771 268.679 6.33133 268.457 6.87417 267.977C7.41701 267.496 7.8158 266.787 8.00317 265.969V265.969Z" fill="#EAEAEA"/>
<path d="M11.4494 263.682C11.4806 262.398 11.8016 261.155 12.3724 260.107C12.9433 259.06 13.7386 258.254 14.6591 257.79C15.5797 257.327 16.5847 257.227 17.5489 257.502C18.513 257.777 19.3935 258.416 20.0805 259.338C20.7675 260.26 21.2305 261.425 21.4119 262.687C21.5933 263.949 21.4849 265.253 21.1003 266.436C20.7157 267.618 20.072 268.628 19.2494 269.337C18.4268 270.047 17.4617 270.426 16.4747 270.426C15.8027 270.42 15.1385 270.239 14.5207 269.895C13.9029 269.552 13.3439 269.051 12.8762 268.423C12.4085 267.796 12.0415 267.053 11.7965 266.239C11.5515 265.425 11.4335 264.556 11.4494 263.682V263.682ZM12.9887 263.682C13.0466 264.561 13.3 265.4 13.7179 266.096C14.1359 266.791 14.7005 267.313 15.3427 267.598C15.9849 267.884 16.6771 267.919 17.3347 267.702C17.9923 267.484 18.5869 267.021 19.0461 266.371C19.5052 265.721 19.809 264.911 19.9204 264.04C20.0317 263.169 19.9458 262.275 19.6732 261.467C19.4006 260.658 18.953 259.97 18.385 259.487C17.8171 259.004 17.1533 258.746 16.4747 258.746C15.9886 258.742 15.5072 258.869 15.0612 259.121C14.6152 259.373 14.2145 259.742 13.8845 260.207C13.5546 260.671 13.3028 261.22 13.1451 261.819C12.9875 262.417 12.9274 263.051 12.9689 263.682H12.9887Z" fill="#EAEAEA"/>
<path d="M32.4245 270.129H30.9646V268.604C30.5958 269.205 30.1226 269.684 29.5839 270.001C29.0453 270.318 28.4565 270.463 27.866 270.426C25.3136 270.426 24.1417 268.398 24.1417 264.728V257.221H25.6314V264.806C25.6314 267.261 26.4855 268.579 28.0646 268.579C29.9913 268.579 30.9448 266.653 30.9448 263.591V257.221H32.4444L32.4245 270.129Z" fill="#EAEAEA"/>
<path d="M43.0413 265.969H44.6005C44.3878 267.271 43.8271 268.434 43.018 269.25C42.209 270.066 41.2038 270.483 40.181 270.426C38.8414 270.35 37.5762 269.604 36.649 268.344C35.7218 267.084 35.2042 265.407 35.2042 263.662C35.2042 261.918 35.7218 260.24 36.649 258.98C37.5762 257.72 38.8414 256.974 40.181 256.898C41.2225 256.866 42.2391 257.314 43.0514 258.163C43.8636 259.012 44.4193 260.207 44.6204 261.537H42.9717C42.8156 260.721 42.4497 259.999 41.9348 259.492C41.4199 258.984 40.7871 258.721 40.1413 258.746C39.1944 258.855 38.3133 259.422 37.6716 260.334C37.0298 261.246 36.6739 262.438 36.6739 263.675C36.6739 264.912 37.0298 266.104 37.6716 267.016C38.3133 267.928 39.1944 268.495 40.1413 268.604C40.7822 268.654 41.4173 268.421 41.9436 267.943C42.47 267.464 42.8567 266.769 43.0413 265.969Z" fill="#EAEAEA"/>
<path d="M47.123 251.652H48.6227V258.72C48.9976 258.115 49.4776 257.634 50.0232 257.317C50.5688 257 51.1644 256.857 51.761 256.898C54.234 256.898 55.674 258.952 55.674 262.622V270.129H54.1744V262.506C54.1744 260.077 53.1812 258.759 51.622 258.759C49.6357 258.759 48.6426 260.736 48.6426 263.798V270.168H47.123V251.652Z" fill="#EAEAEA"/>
<path d="M64.5328 263.682C64.5328 259.934 66.4496 256.898 69.2503 256.898C69.8894 256.879 70.5237 257.046 71.1064 257.388C71.6891 257.73 72.2054 258.238 72.617 258.875V251.652H74.1067V270.129H72.6567V268.424C72.2395 269.067 71.7171 269.58 71.1277 269.927C70.5384 270.273 69.8969 270.444 69.2503 270.427C66.4496 270.427 64.5328 267.416 64.5328 263.682ZM66.0722 263.682C66.0722 266.447 67.3037 268.605 69.3297 268.605C71.3557 268.605 72.6567 266.447 72.6567 263.682C72.6567 260.916 71.3756 258.746 69.3297 258.746C67.2838 258.746 66.0722 260.904 66.0722 263.682Z" fill="#EAEAEA"/>
<path d="M86.1139 264.289H78.3971C78.3877 264.857 78.4665 265.421 78.6286 265.949C78.7907 266.476 79.0329 266.956 79.3407 267.358C79.6485 267.761 80.0156 268.079 80.42 268.293C80.8244 268.507 81.2578 268.613 81.6944 268.604C82.2969 268.641 82.8925 268.425 83.3933 267.988C83.8941 267.55 84.2734 266.915 84.4752 266.175H86.0344C85.8049 267.426 85.2485 268.533 84.4604 269.309C83.6723 270.084 82.7015 270.479 81.7142 270.426C78.8441 270.426 76.8776 267.687 76.8776 263.759C76.8776 259.831 78.6355 256.898 81.5951 256.898C84.8724 256.898 86.1536 260.412 86.1536 263.358C86.1337 263.798 86.1139 264.289 86.1139 264.289ZM81.5752 258.745C80.7842 258.733 80.0198 259.117 79.4395 259.816C78.8593 260.516 78.5075 261.478 78.4567 262.506H84.6142C84.6147 261.995 84.5353 261.49 84.3809 261.02C84.2264 260.551 84.0001 260.128 83.7158 259.776C83.4314 259.424 83.095 259.151 82.727 258.974C82.359 258.797 81.9671 258.719 81.5752 258.745V258.745Z" fill="#EAEAEA"/>
<path d="M92.5792 251.652C93.1029 251.599 93.6264 251.757 94.0788 252.104V253.952C93.6391 253.632 93.1426 253.467 92.6388 253.474C91.4768 253.474 90.871 254.365 90.871 256.239V257.221H93.5227V259.004H90.871V270.129H89.3714V259.004H87.4546V257.221H89.3813V256.239C89.3714 252.97 90.8114 251.652 92.5792 251.652Z" fill="#EAEAEA"/>
<path d="M103.99 264.289H96.2737C96.2629 264.857 96.3407 265.422 96.5023 265.951C96.6639 266.479 96.9061 266.959 97.2142 267.362C97.5222 267.766 97.8899 268.084 98.2949 268.297C98.7 268.51 99.134 268.615 99.571 268.604C100.17 268.636 100.761 268.417 101.258 267.98C101.755 267.543 102.131 266.91 102.332 266.175H103.891C103.66 267.424 103.103 268.531 102.315 269.306C101.528 270.081 100.558 270.477 99.571 270.426C96.6908 270.426 94.7244 267.687 94.7244 263.759C94.7244 259.831 96.4922 256.898 99.4518 256.898C102.729 256.898 104.01 260.412 104.01 263.358C104.01 263.798 103.99 264.289 103.99 264.289ZM99.4518 258.745C98.6608 258.733 97.8964 259.117 97.3161 259.816C96.7359 260.516 96.3841 261.478 96.3333 262.506H102.491C102.49 261.996 102.41 261.491 102.255 261.023C102.1 260.554 101.873 260.131 101.589 259.78C101.305 259.429 100.969 259.156 100.602 258.978C100.235 258.8 99.8433 258.721 99.4518 258.745V258.745Z" fill="#EAEAEA"/>
<path d="M112.919 268.708C112.518 269.279 112.025 269.729 111.476 270.025C110.927 270.322 110.335 270.459 109.741 270.426C107.854 270.426 106.175 269.238 106.175 266.627C106.175 264.017 107.874 262.997 110.148 262.829C112.214 262.699 112.819 262.066 112.819 260.994C112.819 259.56 111.747 258.72 110.406 258.72C110.093 258.677 109.776 258.717 109.475 258.836C109.174 258.955 108.894 259.152 108.652 259.415C108.411 259.678 108.212 260.001 108.068 260.365C107.924 260.73 107.838 261.128 107.814 261.536H106.394C106.406 260.877 106.523 260.228 106.738 259.631C106.952 259.033 107.259 258.5 107.64 258.064C108.021 257.628 108.466 257.3 108.949 257.099C109.432 256.898 109.942 256.83 110.446 256.898C112.959 256.898 114.359 258.642 114.359 261.808V270.129H113.167L112.919 268.708ZM109.86 268.63C110.25 268.675 110.642 268.611 111.011 268.442C111.38 268.273 111.717 268.003 112 267.651C112.282 267.298 112.503 266.871 112.648 266.398C112.793 265.925 112.858 265.417 112.839 264.909V263.798C112.041 264.286 111.169 264.538 110.287 264.534C108.479 264.663 107.675 265.374 107.675 266.563C107.675 267.752 108.589 268.63 109.86 268.63Z" fill="#EAEAEA"/>
<path d="M120.844 270.181C119.166 270.181 118.043 269.186 118.043 266.304V258.965H116.057V257.182H118.043V254.275L119.543 252.44V257.182H122.264V258.965H119.543V266.007C119.543 267.597 119.891 268.359 121.043 268.359C121.47 268.365 121.891 268.227 122.264 267.958V269.729C121.832 270.048 121.341 270.205 120.844 270.181V270.181Z" fill="#EAEAEA"/>
<path d="M133.139 264.289H125.422C125.413 264.858 125.492 265.423 125.655 265.952C125.818 266.48 126.061 266.96 126.369 267.363C126.678 267.766 127.047 268.084 127.452 268.297C127.858 268.51 128.292 268.615 128.73 268.604C129.327 268.635 129.917 268.415 130.412 267.978C130.907 267.541 131.282 266.909 131.481 266.175H133.04C132.812 267.425 132.258 268.532 131.472 269.308C130.685 270.083 129.716 270.479 128.73 270.426C125.85 270.426 123.883 267.687 123.883 263.759C123.883 259.831 125.651 256.898 128.601 256.898C131.888 256.898 133.159 260.412 133.159 263.358C133.139 263.798 133.139 264.289 133.139 264.289ZM128.601 258.745C127.806 258.74 127.04 259.131 126.46 259.837C125.88 260.544 125.53 261.513 125.482 262.544H131.64C131.645 262.025 131.567 261.509 131.411 261.031C131.256 260.552 131.025 260.121 130.735 259.764C130.445 259.407 130.101 259.132 129.725 258.957C129.349 258.782 128.949 258.71 128.551 258.745H128.601Z" fill="#EAEAEA"/>
<path d="M135.304 263.682C135.304 259.934 137.231 256.898 140.022 256.898C140.661 256.879 141.295 257.046 141.878 257.388C142.461 257.73 142.977 258.238 143.388 258.875V251.652H144.888V270.129H143.428V268.424C143.011 269.067 142.489 269.58 141.899 269.927C141.31 270.273 140.668 270.444 140.022 270.427C137.231 270.427 135.304 267.416 135.304 263.682ZM136.844 263.682C136.844 266.447 138.075 268.605 140.101 268.605C142.127 268.605 143.428 266.447 143.428 263.682C143.428 260.916 142.157 258.746 140.101 258.746C138.045 258.746 136.844 260.904 136.844 263.682V263.682Z" fill="#EAEAEA"/>
<path d="M339.783 478.795C362.506 467.58 385.179 451.157 403.85 428.609C432.81 393.631 453.309 347.205 458.473 297.096C458.414 294.706 457.351 294.318 455.494 294.37C453.637 294.421 453.269 295.442 453.349 297.083C450.558 327.758 441.56 357.697 429.255 382.738C425.143 391.097 420.527 399.017 415.45 406.423C405.575 420.796 394.327 433.467 381.981 444.128C371.563 453.172 349.793 466.688 338.144 472.748L339.783 478.795ZM80.6814 310.702C86.4615 338.741 97.3861 371.174 110.049 393.915C123.48 418.008 140.336 438.527 159.706 454.361C173.473 465.662 188.385 474.408 204.01 480.346C206.096 481.108 206.761 475.255 204.01 474.273C166.827 459.879 133.139 427.756 111.548 386.86C100.475 365.85 90.5433 333.431 85.3293 306.877L80.6814 310.702ZM340.508 34.8323C368.479 46.5207 393.794 67.0284 414.199 94.5287C421.657 104.478 426.524 114.104 432.284 125.604C439.248 139.663 444.849 154.788 448.959 170.635L455.375 168.4C440.606 117.58 409.591 70.3788 373.54 45.7508C363.736 38.7886 353.397 33.1886 342.692 29.0435C336.406 26.6918 337.478 27.325 336.793 29.0435C336.108 30.762 335.949 32.9328 340.508 34.8323ZM184.673 31.757C179.052 34.8839 167.72 41.5901 162.497 45.8929C143.706 61.3597 126.525 77.731 111.757 99.6972C97.3861 120.914 85.1208 142.635 78.3873 169.679C77.4736 173.323 76.6592 177.005 75.9243 180.714C75.3582 183.401 77.9105 186.619 80.3835 180.714C83.4225 166.5 87.8618 155.672 93.8406 143.164C107.318 115.048 123.873 89.6057 144.491 69.9782C155.574 59.3957 172.885 45.053 185.408 38.0626" fill="#EAEAEA"/>
<path d="M448.144 159.135C449.346 162.934 449.455 167.25 448.77 166.888C447.698 166.332 442.186 160.427 433.645 156.435C430.834 155.143 427.914 154.807 428.172 156.719C428.282 157.869 429.483 158.993 430.903 160.091C432.324 161.19 434.042 162.223 435.104 162.921C440.718 166.341 445.994 170.632 450.816 175.7C453.726 178.776 455.067 179.926 455.653 179.732C456.239 179.538 456.775 178.052 457.748 174.744C459.155 169.596 460.234 164.306 460.976 158.928C461.911 152.544 462.228 146.033 461.919 139.547C461.711 135.089 461.065 132.737 460.489 131.561C458.662 128.163 458.046 131.794 457.689 136.588C457.53 139.03 457.351 141.756 457.192 144.108C457.033 146.459 456.864 148.54 456.685 149.703C455.772 157.856 454.332 166.707 453.498 165.079C453.18 164.433 452.375 161.59 450.737 156.693" fill="#EAEAEA"/>
<path d="M344.858 470.745C342.047 472.58 338.74 473.045 338.958 472.128C339.306 470.694 343.467 463.083 345.861 451.725C346.655 447.991 346.685 444.179 345.245 444.657C344.371 444.877 343.596 446.518 342.861 448.443C342.126 450.368 341.451 452.668 340.994 454.103C338.789 461.639 335.887 468.798 332.354 475.423C330.209 479.428 329.424 481.25 329.613 482C329.801 482.749 330.983 483.292 333.585 484.351C337.637 485.787 341.772 486.785 345.95 487.336C350.902 488.08 355.907 488.015 360.847 487.142C364.254 486.548 366.002 485.54 366.866 484.7C369.339 482.116 366.518 481.548 362.814 481.444L357.014 481.341C355.176 481.341 353.587 481.237 352.684 481.095C346.367 480.501 339.475 479.299 340.666 478.085C341.133 477.632 343.249 476.366 346.893 473.885" fill="#EAEAEA"/>
<path d="M86.6502 318.235C85.9649 314.242 85.2995 309.797 85.9351 310.314C86.9283 311.09 92.6885 318.338 100.584 324.14C103.176 326.052 106.007 327.022 106.007 325.083C106.007 323.92 105.013 322.499 103.762 321.207C102.511 319.915 100.961 318.39 99.998 317.46C94.9141 312.813 90.2849 307.376 86.2132 301.269C83.7502 297.574 82.5783 296.101 81.9725 296.204C81.3667 296.308 80.6516 297.613 79.2513 300.649C77.1889 305.408 75.4285 310.377 73.9876 315.509C72.2187 321.595 71.0443 327.946 70.4918 334.413C70.1044 338.845 70.4322 341.3 70.8394 342.592C72.2 346.352 73.2825 342.915 74.2657 338.263C74.7523 335.899 75.2588 333.288 75.7554 330.975C76.252 328.663 76.6592 326.673 76.9869 325.574C78.9732 317.744 81.5554 309.358 82.1612 311.141C82.3896 311.852 82.8067 314.824 83.78 320.018" fill="#EAEAEA"/>
<path d="M179.519 40.2592C182.439 38.7086 185.686 37.1064 185.408 37.9979C184.981 39.3934 180.443 48.0249 177.404 59.1243C176.41 62.781 176.142 66.5669 177.602 66.2439C178.496 66.1018 179.36 64.5512 180.204 62.6905C181.007 60.9229 181.74 59.1029 182.399 57.2378C185.037 49.9446 188.349 43.0974 192.261 36.8479C194.645 33.062 195.528 31.3176 195.38 30.5553C195.231 29.7929 194.088 29.0952 191.556 27.8159C187.603 25.9703 183.541 24.5485 179.41 23.5648C174.504 22.3342 169.5 21.9002 164.513 22.2727C161.086 22.5311 159.279 23.371 158.375 24.1075C155.753 26.485 158.534 27.2991 162.228 27.7643L167.999 28.4491C169.836 28.6558 171.415 28.8884 172.309 29.121C178.566 30.3356 185.359 32.235 184.107 33.3204C183.611 33.721 181.426 34.7676 177.652 36.8867" fill="#EAEAEA"/>
<path d="M280.622 127.752C234.466 118.068 187.831 154.938 181.181 206.529L174.285 262.572C174.203 263.75 174.11 264.928 174.028 266.106C173.947 267.285 174.95 267.323 176.362 267.802L186.711 271.466L189.044 272.567C189.044 272.787 189.173 298.252 189.149 310.343C189.149 310.343 189.044 316.726 189.091 318.927C189.278 327.367 194.248 333.258 202.1 333.53C211.213 333.853 220.36 333.53 229.484 333.659C238.608 333.789 245.34 340.055 245.725 349.194C246.052 356.807 245.725 367.578 245.725 375.203H346.858C346.858 354.489 347.173 330.565 346.776 309.825C346.298 285.034 348.445 260.449 351.233 235.942C357.195 183.601 327.327 137.565 280.622 127.752Z" fill="#E5DEDB"/>
<path d="M276.013 260.464C272.229 260.464 269.289 259.534 267.581 257.725C267.077 257.23 266.671 256.587 266.397 255.848C266.122 255.108 265.987 254.295 266.002 253.474C266.158 251.001 267.023 248.695 268.425 247.013L267.154 247.814C261.424 251.316 256.388 253.06 251.75 253.138C245.791 253.228 240.448 250.553 236.982 245.682C233.516 240.811 231.599 233.278 231.619 223.716C231.619 210.678 234.688 198.752 240.19 189.901C239.459 189.04 238.839 188.032 238.353 186.916C238.312 186.81 238.29 186.693 238.29 186.574C238.29 186.455 238.312 186.337 238.353 186.231C239.982 181.063 244.778 179.654 248.284 179.021C249.397 178.814 250.499 178.633 251.611 178.478C253.903 177.125 256.32 176.165 258.802 175.623C263.003 169.369 267.929 164.239 271.196 165.221C273.351 165.867 274.434 168.878 274.404 174.189C274.404 174.46 274.404 174.731 274.404 175.003C276.519 174.398 278.675 174.069 280.839 174.021C283.675 171.988 286.748 170.577 289.937 169.847C298.19 168.374 302.45 169.421 302.977 173.064C303.314 175.481 301.715 178.543 299.312 181.45C301.74 183.624 303.975 186.142 305.976 188.958C306.77 190.056 307.505 191.18 308.181 192.317C310.449 193.885 312.436 196.06 314.01 198.7C316.205 202.577 317.129 208.779 314.666 213.095L314.437 213.482V213.65C314.437 222.269 311.041 231.042 305.43 237.141C303.602 239.123 301.602 240.819 299.471 242.193C299.887 243.414 300.104 244.734 300.106 246.07C300.027 251.755 295.449 255.993 286.5 258.694C283.067 259.797 279.549 260.39 276.013 260.464V260.464ZM271.712 245.294L270.938 246.147C269.13 248.163 267.263 250.618 267.204 253.525C267.194 254.106 267.293 254.681 267.492 255.201C267.691 255.72 267.984 256.17 268.346 256.51C270.481 258.784 276.291 260.167 286.113 257.195C294.346 254.714 298.726 250.864 298.795 246.07C298.789 244.969 298.607 243.882 298.259 242.878C294.505 245.058 290.51 246.449 286.421 247C282.08 247.759 277.663 247.211 273.51 245.398C272.921 245.381 272.322 245.346 271.712 245.294V245.294ZM241.124 190.909C235.79 199.476 232.851 211.053 232.821 223.729C232.821 232.929 234.499 239.971 237.856 244.661C241.213 249.352 246.149 251.703 251.76 251.626C256.289 251.548 261.026 249.907 266.657 246.457C267.541 245.928 268.395 245.372 269.23 244.803C268.668 244.629 268.114 244.414 267.571 244.157C265.881 245.67 264.053 246.902 262.129 247.827C255.594 250.954 248.413 249.313 244.252 243.744C240.28 238.42 239.505 230.525 239.564 224.827C239.722 213.846 242.437 203.186 247.351 194.255C245.121 193.707 243.001 192.567 241.124 190.909V190.909ZM248.622 194.578C243.653 203.362 240.902 213.936 240.746 224.84C240.746 230.228 241.402 237.761 245.096 242.646C249.526 248.564 256.627 248.77 261.692 246.354C263.275 245.591 264.79 244.608 266.21 243.421C265.744 243.14 265.289 242.825 264.85 242.478L263.976 242.697C258.017 244.106 253.429 243.111 250.36 239.712C249.275 238.464 248.402 236.934 247.798 235.22C247.195 233.507 246.873 231.648 246.854 229.763C246.754 225.381 247.785 221.082 249.784 217.552C249.567 212.661 250.014 207.758 251.105 203.068C250.591 200.36 250.924 197.498 252.028 195.108H251.929C250.747 194.979 249.655 194.811 248.622 194.578V194.578ZM276.43 244.829C279.662 245.715 282.984 245.899 286.262 245.372C290.203 244.873 294.058 243.565 297.683 241.496C295.771 237.847 293.182 234.887 290.155 232.89C289.15 233.946 288.037 234.816 286.848 235.474C284.567 239.769 281.251 242.952 277.423 244.519C277.145 244.61 276.787 244.726 276.46 244.829H276.43ZM273.311 243.537H273.401L273.669 243.679C274.827 243.606 275.975 243.35 277.085 242.917C280.093 241.701 282.772 239.397 284.812 236.275C284.35 236.406 283.883 236.496 283.412 236.547C282.514 236.649 281.611 236.61 280.72 236.43L280.114 236.973C278.039 239.322 275.82 241.448 273.48 243.33L273.311 243.537ZM268.753 242.969C269.319 243.175 269.892 243.343 270.471 243.473C270.054 243.162 269.647 242.827 269.24 242.478L268.753 242.969ZM270.223 241.431C270.789 241.909 271.375 242.336 271.971 242.723L272.785 242.077C274.831 239.958 276.936 237.942 279.092 236.004L278.535 235.797C276.257 237.468 273.875 238.885 271.415 240.036C271.047 240.539 270.65 241.018 270.253 241.457L270.223 241.431ZM266.638 241.922C266.876 242.077 267.124 242.206 267.372 242.348C267.651 242.09 267.939 241.819 268.217 241.534L268.097 241.431L266.638 241.922ZM249.933 219.956C248.604 222.876 247.943 226.229 248.026 229.621C248.038 231.29 248.319 232.937 248.849 234.457C249.379 235.977 250.147 237.335 251.105 238.446C253.836 241.47 257.987 242.323 263.43 241.147C263.049 240.744 262.688 240.313 262.347 239.855C261.683 239.056 261.138 238.106 260.738 237.051C258.097 236.698 255.636 235.147 253.786 232.67C252.483 230.762 251.525 228.497 250.986 226.042C250.708 225.874 250.429 225.68 250.151 225.473C250.077 225.414 250.013 225.335 249.963 225.242C249.914 225.148 249.88 225.042 249.863 224.931C249.848 224.818 249.852 224.703 249.877 224.593C249.901 224.483 249.944 224.382 250.002 224.297L250.479 223.561C250.261 222.397 250.089 221.22 249.963 220.033L249.933 219.956ZM262.158 237.219C262.451 237.784 262.783 238.311 263.152 238.795C263.729 239.522 264.361 240.171 265.039 240.733C265.661 240.57 266.287 240.376 266.916 240.152C266.054 239.173 265.245 238.12 264.492 236.999C263.731 237.177 262.961 237.276 262.188 237.296L262.158 237.219ZM291.128 231.701C294.231 233.819 296.867 236.932 298.786 240.746C300.847 239.429 302.781 237.799 304.546 235.888C306.977 233.333 308.987 230.165 310.455 226.575C311.923 222.984 312.818 219.045 313.087 214.994C311.359 216.608 309.373 217.69 307.277 218.16C305.992 218.518 304.692 218.772 303.384 218.922C303.329 219.045 303.25 219.148 303.155 219.219C300.507 221.08 297.859 222.975 295.21 224.905C294.942 225.512 294.644 226.119 294.336 226.727C293.426 228.561 292.36 230.256 291.158 231.779L291.128 231.701ZM265.962 236.663C266.723 237.742 267.543 238.749 268.415 239.674C269.22 239.377 270.024 239.041 270.809 238.666C272.143 237.041 273.404 235.315 274.583 233.497C274.056 233.101 273.546 232.67 273.053 232.205C270.929 234.264 268.522 235.776 265.962 236.663V236.663ZM275.655 234.221C274.993 235.298 274.308 236.306 273.599 237.245C274.771 236.586 275.933 235.862 277.066 235.074C276.857 234.97 276.658 234.854 276.45 234.725C276.241 234.596 275.913 234.441 275.655 234.26V234.221ZM261.622 235.655C262.283 235.723 262.947 235.723 263.608 235.655C263.054 234.735 262.537 233.778 262.059 232.787C261.772 233.248 261.587 233.802 261.523 234.389C261.492 234.828 261.526 235.271 261.622 235.694V235.655ZM252.426 226.83C252.912 228.625 253.668 230.277 254.65 231.688C256.189 233.725 258.198 235.05 260.371 235.461C260.325 235.033 260.325 234.598 260.371 234.169C260.488 233.114 260.868 232.138 261.453 231.391C260.858 230.027 260.321 228.62 259.844 227.179C257.38 227.71 254.859 227.604 252.426 226.869V226.83ZM263.052 231.675C263.656 232.942 264.32 234.159 265.039 235.319C267.551 234.561 269.917 233.14 271.991 231.146C271.524 230.642 271.077 230.125 270.65 229.582C269.24 229.711 267.839 229.905 266.459 230.19C265.259 230.413 264.103 230.93 263.052 231.714V231.675ZM282.349 235.061C282.68 235.088 283.011 235.088 283.342 235.061C284.289 234.948 285.219 234.661 286.103 234.208C286.561 233.342 286.973 232.435 287.335 231.495L286.898 231.352C285.358 232.58 283.849 233.82 282.349 235.1V235.061ZM280.015 234.686L280.254 234.751L280.869 233.988L280.015 234.686ZM276.44 232.98L276.956 233.304C277.453 233.601 277.949 233.872 278.436 234.092C279.973 232.931 281.459 231.659 282.885 230.28C281.406 229.97 279.906 229.737 278.416 229.595C277.85 230.629 277.254 231.65 276.629 232.67L276.44 232.98ZM288.507 231.882C288.387 232.205 288.258 232.515 288.129 232.825C288.417 232.593 288.685 232.347 288.953 232.089L288.507 231.882ZM274.056 231.146C274.473 231.533 274.91 231.895 275.357 232.231L275.685 231.701C276.142 230.965 276.569 230.228 276.986 229.479H275.635C275.099 230.073 274.573 230.642 274.056 231.184V231.146ZM284.822 230.732L284.246 231.611L285.239 230.823L284.822 230.732ZM289.003 230.448C289.311 230.59 289.649 230.771 289.996 230.991C291.113 229.676 292.112 228.202 292.976 226.597C291.734 227.515 290.493 228.458 289.251 229.414C289.212 229.802 289.112 230.202 289.003 230.487V230.448ZM261.116 226.92C261.523 228.096 261.96 229.233 262.437 230.332C263.646 229.448 264.974 228.873 266.35 228.639C267.442 228.419 268.544 228.251 269.647 228.122C269.108 227.336 268.607 226.507 268.147 225.641L261.424 226.869L261.116 226.92ZM272.388 229.505C272.606 229.75 272.825 229.996 273.053 230.228L273.788 229.466L272.388 229.505ZM285.686 229.414L286.679 229.698L288.308 228.406C288.597 227.301 288.807 226.164 288.934 225.008C287.943 226.583 286.857 228.052 285.686 229.401V229.414ZM279.201 228.122C280.869 228.316 282.528 228.6 284.167 228.988L284.693 228.406C284.971 227.941 285.239 227.463 285.497 226.985C286.344 225.427 287.108 223.795 287.782 222.101L281.475 223.238C280.8 224.892 280.045 226.52 279.201 228.148V228.122ZM276.887 227.928L277.82 227.993C278.615 226.494 279.34 225.008 279.995 223.509C279.033 225.075 277.994 226.56 276.887 227.954V227.928ZM269.488 225.409C270.004 226.32 270.568 227.183 271.176 227.993C272.507 227.889 273.848 227.851 275.149 227.877C276.204 226.613 277.199 225.266 278.128 223.845L269.488 225.409ZM290.254 222.579C290.257 224.143 290.11 225.701 289.817 227.218C291.347 226.055 292.876 224.909 294.406 223.781C294.846 222.776 295.244 221.741 295.598 220.679L290.721 221.558C290.572 221.933 290.423 222.269 290.254 222.605V222.579ZM251.959 225.034C254.358 226.01 256.9 226.231 259.378 225.68C258.725 223.44 258.207 221.137 257.828 218.793C257.689 217.927 257.56 217.074 257.451 216.209C255.465 218.728 253.568 221.377 251.77 224.078C251.83 224.414 251.889 224.711 251.959 225.034ZM258.494 214.929C258.643 216.079 258.812 217.255 259 218.47C259.385 220.862 259.93 223.205 260.629 225.473L261.255 225.37L267.412 224.246C266.037 221.338 265.103 218.114 264.661 214.749C264.602 214.335 264.552 213.883 264.512 213.392C263.21 213.144 261.92 212.799 260.649 212.358C259.924 213.185 259.209 214.051 258.494 214.917V214.929ZM265.744 213.637C265.744 213.922 265.803 214.219 265.843 214.529C266.292 217.926 267.272 221.167 268.723 224.052L279.32 222.127C280.968 219.373 282.305 216.327 283.293 213.082C282.707 212.629 282.131 212.151 281.574 211.647L281.316 211.415C276.312 213.624 270.994 214.365 265.744 213.586V213.637ZM297.008 220.46C296.809 221.106 296.591 221.752 296.352 222.411L299.769 219.956L297.008 220.46ZM251.045 218.031C251.128 219.427 251.27 220.816 251.472 222.191C253.319 219.452 255.236 216.829 257.242 214.309C257.163 213.56 257.083 212.836 257.024 212.1C255.128 213.266 253.399 214.844 251.909 216.764C251.581 217.165 251.323 217.591 251.015 218.031H251.045ZM284.564 213.896C283.943 216.532 283.153 219.095 282.2 221.558L288.457 220.421C288.576 220.098 288.685 219.775 288.795 219.452C288.698 218.948 288.578 218.452 288.437 217.966C288.214 217.198 287.931 216.462 287.593 215.769C286.53 215.214 285.517 214.581 284.534 213.896H284.564ZM292.062 217.772C291.886 218.517 291.673 219.246 291.426 219.956L296.144 219.103L296.223 218.832C294.813 218.568 293.417 218.193 292.042 217.708L292.062 217.772ZM290.076 219.659V219.878C290.389 219.045 290.652 218.181 290.86 217.294H290.731C290.506 218.052 290.281 218.819 290.056 219.594L290.076 219.659ZM297.832 217.488C300.935 217.843 304.06 217.599 307.108 216.764C309.385 216.331 311.507 215.011 313.196 212.978C313.077 206.518 311.031 199.811 307.346 193.596C306.353 192.873 305.36 192.214 304.367 191.594C301.275 189.705 298.109 188.027 294.882 186.567V186.567L293.144 187.459L292.578 187.885C292.801 189.28 292.825 190.717 292.648 192.123C295.137 194.744 296.981 198.257 297.951 202.228C299.035 207.206 298.977 212.488 297.782 217.423L297.832 217.488ZM292.38 216.196C293.774 216.672 295.19 217.026 296.621 217.255C297.777 212.513 297.825 207.432 296.76 202.654C295.917 199.244 294.371 196.2 292.29 193.855C292.109 194.631 291.88 195.387 291.605 196.116C291.665 196.387 291.714 196.646 291.764 196.904C292.529 201.139 292.664 205.525 292.161 209.826C292.619 211.899 292.677 214.086 292.33 216.196H292.38ZM289.331 216.622L289.51 217.165L289.619 216.751L289.331 216.622ZM251.909 205.381C251.251 208.784 250.941 212.286 250.986 215.795L251.075 215.666C252.715 213.537 254.636 211.808 256.746 210.562C254.749 209.524 253.044 207.716 251.86 205.381H251.909ZM291.138 215.718C291.138 215.537 291.188 215.369 291.208 215.188C291.168 215.408 291.128 215.575 291.049 215.743L291.138 215.718ZM288.417 214.425C288.934 214.697 289.46 214.955 289.996 215.188C290.407 213.431 290.722 211.64 290.94 209.826C290.17 206.999 288.676 204.604 286.709 203.042C286.49 203.231 286.272 203.412 286.053 203.585C286.007 205.906 285.741 208.21 285.259 210.446C286.49 211.519 287.546 212.898 288.367 214.503L288.417 214.425ZM258.186 211.363C258.186 211.88 258.275 212.397 258.325 212.914L259.318 211.738L259.1 211.66L258.305 211.299L258.186 211.363ZM284.921 212.281L285.676 212.797C285.448 212.539 285.209 212.306 284.961 212.074L284.921 212.281ZM265.724 211.919C270.601 212.667 275.545 212.05 280.224 210.11C279.817 209.696 279.439 209.27 279.082 208.818C278.367 208.611 277.651 208.456 276.956 208.327C273.399 209.568 269.703 210.005 266.032 209.619C265.803 210.377 265.682 211.182 265.674 211.996L265.724 211.919ZM261.751 211.014C262.655 211.299 263.569 211.531 264.482 211.712C264.499 210.951 264.589 210.196 264.751 209.464C264.393 209.386 264.035 209.309 263.668 209.205L263.301 209.309L261.751 211.014ZM282.726 210.575L283.72 211.415C283.747 211.326 283.77 211.236 283.789 211.143C283.481 210.911 283.163 210.704 282.846 210.51L282.726 210.575ZM310.008 195.728C312.315 200.254 313.768 205.425 314.249 210.82C315.52 207.241 314.666 202.667 312.968 199.656C312.125 198.195 311.125 196.898 309.998 195.806L310.008 195.728ZM260.083 210.433L260.311 210.523L260.559 210.239L260.083 210.433ZM258.007 209.502L258.236 209.619C259.211 209.121 260.205 208.689 261.215 208.327C260.054 207.812 258.933 207.154 257.868 206.363C257.888 207.513 257.938 208.546 257.997 209.528L258.007 209.502ZM283.71 209.309L284.127 209.593C284.374 207.96 284.527 206.306 284.584 204.644C283.298 205.493 281.971 206.231 280.611 206.854L280.462 206.931C281.485 207.486 282.48 208.125 283.442 208.843C283.512 208.904 283.572 208.984 283.616 209.078C283.661 209.172 283.689 209.277 283.7 209.386L283.71 209.309ZM255.584 207.926C255.97 208.241 256.367 208.53 256.776 208.792C256.716 207.655 256.676 206.531 256.656 205.406L256.388 205.174C256.157 206.104 255.885 207.047 255.574 208.004L255.584 207.926ZM271.891 207.991C270.997 207.991 270.233 208.068 269.667 208.133L268.673 208.249C269.745 208.267 270.815 208.206 271.881 208.068L271.891 207.991ZM257.838 204.554C259.457 205.88 261.232 206.854 263.092 207.435C266.336 203.973 269.746 200.784 273.302 197.886C267.819 197.201 261.761 197.886 257.838 202.719C257.828 203.404 257.818 204.024 257.828 204.631L257.838 204.554ZM274.861 198.558C271.531 201.198 268.327 204.098 265.267 207.241L265.694 207.151C267.968 203.52 272.567 204.166 274.017 204.476C274.89 204.659 275.755 204.9 276.609 205.2C276.282 204.551 275.99 203.873 275.735 203.171C275.226 201.744 274.927 200.206 274.851 198.636L274.861 198.558ZM252.316 203.068C252.316 203.236 252.406 203.404 252.455 203.572C252.908 204.949 253.622 206.154 254.531 207.073C255.723 203.313 256.647 198.868 255.961 195.444H254.849C253.809 197.867 252.96 200.422 252.316 203.068V203.068ZM287.662 202.163C289.055 203.396 290.227 205.005 291.099 206.879C291.263 203.933 291.109 200.971 290.642 198.08C290.258 198.817 289.829 199.512 289.361 200.16C288.843 200.872 288.289 201.537 287.702 202.15L287.662 202.163ZM271.623 205.872C270.353 205.825 269.092 206.161 267.939 206.854L269.528 206.66C271.73 206.434 273.944 206.468 276.142 206.763C275.367 206.505 274.573 206.285 273.768 206.104C273.072 205.952 272.368 205.87 271.663 205.859L271.623 205.872ZM278.516 206.052L278.694 206.13C279.241 205.91 279.747 205.678 280.174 205.471C281.685 204.764 283.15 203.9 284.554 202.887C284.554 202.435 284.554 201.995 284.554 201.595C282.19 200.214 279.7 199.233 277.145 198.674L276.033 198.429C276.08 199.868 276.343 201.282 276.807 202.59C277.258 203.844 277.847 205.006 278.555 206.04L278.516 206.052ZM285.885 200.742L286.58 201.259C287.263 200.609 287.901 199.883 288.487 199.088C289.171 198.154 289.759 197.107 290.235 195.974C289.834 194.186 289.299 192.455 288.636 190.805L288.03 190.482C287.583 190.676 287.156 190.844 286.769 190.96C286.381 191.077 285.696 191.283 285.14 191.413L284.018 192.097C285.044 194.804 285.69 197.727 285.924 200.729L285.885 200.742ZM258.077 195.483C257.957 197.279 257.878 199.01 257.828 200.651C262.427 195.935 269.11 195.625 274.851 196.607C274.949 195.574 275.17 194.567 275.506 193.622C269.768 194.924 263.951 195.542 258.126 195.47L258.077 195.483ZM276.857 197.046L277.324 197.15C279.741 197.688 282.103 198.581 284.365 199.811C284.126 197.414 283.607 195.079 282.826 192.886C280.859 194.165 278.863 195.56 276.907 197.033L276.857 197.046ZM253.31 195.237C252.717 196.447 252.31 197.794 252.108 199.204C252.525 197.856 252.996 196.536 253.518 195.25L253.31 195.237ZM277.046 193.286C276.675 194.005 276.4 194.8 276.231 195.638C277.88 194.346 279.548 193.222 281.257 192.11C279.896 192.537 278.496 192.937 277.085 193.286H277.046ZM258.176 193.906C264.267 193.989 270.35 193.306 276.341 191.865C276.79 191.139 277.318 190.504 277.91 189.978C276.178 188.293 274.885 185.957 274.205 183.285C272.466 182.819 270.675 182.771 268.922 183.143C267.214 184.073 265.505 184.965 263.777 185.805C262.706 186.34 261.599 186.747 260.47 187.019L259.477 187.782C259.199 187.989 258.931 188.195 258.673 188.428V188.764L259.596 188.867C261.995 189.238 264.413 189.35 266.826 189.203C266.981 189.191 267.133 189.257 267.251 189.386C267.37 189.516 267.446 189.699 267.464 189.899C267.481 190.099 267.44 190.301 267.347 190.462C267.254 190.623 267.118 190.732 266.965 190.767C264.131 191.33 261.271 191.658 258.404 191.749C258.345 192.472 258.275 193.196 258.275 193.906H258.176ZM256.825 193.906H256.974C257.024 193.209 257.074 192.498 257.133 191.787H256.547C256.438 191.981 256.329 192.188 256.229 192.395C256.484 192.862 256.703 193.359 256.885 193.881L256.825 193.906ZM290.423 192.149C290.602 192.705 290.781 193.26 290.94 193.829C291.019 193.493 291.099 193.157 291.158 192.808C290.979 192.55 290.731 192.33 290.483 192.123L290.423 192.149ZM254.094 193.751H254.154L254.342 193.338C254.303 193.454 254.233 193.596 254.154 193.726L254.094 193.751ZM249.387 193.196C250.201 193.351 251.055 193.48 251.959 193.571L252.684 193.635C253.039 192.966 253.427 192.327 253.846 191.723C252.634 191.723 251.522 191.542 250.519 191.413C250.175 191.981 249.817 192.567 249.446 193.17L249.387 193.196ZM241.839 189.733C243.712 191.347 245.828 192.426 248.046 192.899C248.384 192.313 248.731 191.744 249.089 191.193C246.894 190.792 245.464 190.263 245.205 189.772C245.147 189.628 245.117 189.469 245.117 189.306C245.117 189.144 245.147 188.985 245.205 188.841C245.414 188.363 245.782 188.04 248.711 188.26C249.456 188.26 250.201 188.376 250.946 188.518C251.572 187.665 252.217 186.826 252.932 186.024C253.429 184.926 253.995 183.776 254.611 182.6C254.832 182.083 255.095 181.598 255.395 181.153C255.683 180.623 255.981 180.107 256.289 179.577C254.809 179.693 253.31 179.848 251.869 180.055C248.074 182.328 244.69 185.617 241.938 189.707L241.839 189.733ZM279.101 190.883C278.919 191.01 278.743 191.152 278.575 191.309L279.429 191.064L279.101 190.883ZM289.619 189.707C290.226 190.088 290.813 190.519 291.377 190.999C291.429 190.202 291.405 189.399 291.307 188.609C290.791 189.009 290.225 189.371 289.678 189.681L289.619 189.707ZM295.578 185.262C298.694 186.684 301.754 188.31 304.744 190.133L305.251 190.456L304.973 190.069C302.96 187.245 300.708 184.726 298.259 182.562C297.417 183.509 296.538 184.402 295.627 185.236L295.578 185.262ZM254.591 190.146H255.038L255.157 189.991H254.412L254.591 190.146ZM280.8 189.94C281.1 190.035 281.406 190.104 281.713 190.146C281.644 189.991 281.564 189.849 281.485 189.694L280.8 189.94ZM282.925 189.423L283.144 189.888L284.464 189.423C283.952 189.375 283.437 189.38 282.925 189.436V189.423ZM275.725 183.815C276.403 186.004 277.605 187.852 279.151 189.087C279.644 188.786 280.156 188.539 280.681 188.35C279.87 187.073 278.903 185.978 277.82 185.107C277.159 184.585 276.456 184.156 275.725 183.828V183.815ZM239.545 186.477C239.939 187.297 240.417 188.045 240.965 188.699C243.117 185.511 245.64 182.781 248.443 180.61H248.334C243.517 181.476 240.697 183.363 239.545 186.49V186.477ZM254.054 188.428C254.849 188.428 255.663 188.428 256.498 188.544C256.905 188.131 257.322 187.73 257.749 187.355L257.858 187.2C256.777 187.118 255.74 186.619 254.879 185.766C254.511 186.167 254.154 186.58 253.796 187.058C253.439 187.536 253.379 188.027 253.18 188.505L254.054 188.428ZM283.749 187.821C284.883 187.82 286.012 188.015 287.106 188.402L287.494 188.247C286.363 186.037 284.995 184.048 283.432 182.342C281.167 181.696 278.886 181.153 276.589 180.714C278.751 182.701 280.642 185.147 282.18 187.95C282.369 187.95 282.568 187.885 282.766 187.872C282.965 187.859 283.422 187.833 283.749 187.833V187.821ZM285.736 183.04C286.821 184.477 287.792 186.053 288.636 187.743H288.705L290.9 186.632C290.678 185.899 290.388 185.205 290.036 184.564C288.656 184.009 287.215 183.518 285.775 183.053L285.736 183.04ZM291.744 185.21C291.853 185.482 291.943 185.779 292.032 186.063L292.876 185.676L291.744 185.21ZM255.842 184.732C256.779 185.454 257.866 185.775 258.951 185.65C259.348 185.133 259.755 184.629 260.182 184.138C261.759 182.325 263.481 180.735 265.317 179.396C264.413 179.396 263.499 179.331 262.595 179.331C260.195 180.771 257.941 182.589 255.882 184.745L255.842 184.732ZM290.791 183.195C291.936 183.634 293.068 184.099 294.187 184.59C295.22 183.672 296.214 182.685 297.167 181.631C295.248 180.057 293.203 178.757 291.069 177.755C287.83 176.266 284.414 175.531 280.978 175.584L280.174 176.114C283.104 176.786 288.07 178.582 290.83 183.208L290.791 183.195ZM267.72 179.538C265.591 180.847 263.591 182.482 261.761 184.409C263.927 183.089 266.218 182.151 268.574 181.618C269.567 181.076 270.56 180.507 271.554 179.926C270.309 179.779 269.044 179.654 267.76 179.551L267.72 179.538ZM256.031 182.471C256.031 182.536 255.961 182.6 255.931 182.678C257.193 181.448 258.52 180.338 259.904 179.357H259.586C258.229 179.993 257.019 181.069 256.07 182.484L256.031 182.471ZM275.139 181.954C275.486 182.071 275.824 182.213 276.132 182.368C275.745 182.006 275.357 181.644 274.95 181.308L275.139 181.954ZM283.918 180.895C285.448 181.334 286.967 181.812 288.477 182.342C286.031 179.933 283.171 178.337 280.144 177.69C281.501 178.58 282.78 179.659 283.958 180.908L283.918 180.895ZM272.08 181.347C272.659 181.373 273.237 181.451 273.808 181.58C273.729 181.205 273.649 180.817 273.59 180.442L272.08 181.347ZM283.352 174.111C286.138 174.338 288.885 175.069 291.516 176.282C293.842 177.384 296.067 178.819 298.15 180.559C300.424 177.858 301.924 175.145 301.676 173.349C301.507 172.16 300.027 169.614 289.976 171.398C287.692 171.891 285.475 172.809 283.392 174.124L283.352 174.111ZM275.874 179.008C277.592 179.318 279.31 179.693 281.018 180.107C279.915 179.229 278.747 178.498 277.532 177.923C277.016 178.31 276.47 178.672 275.913 179.021L275.874 179.008ZM271.901 177.406C272.358 177.651 272.805 177.91 273.242 178.194C273.242 177.781 273.162 177.367 273.133 176.902C272.795 177.109 272.388 177.225 271.971 177.419L271.901 177.406ZM274.334 176.889C274.334 177.303 274.404 177.729 274.454 178.181L275.834 177.303C275.364 177.134 274.886 177 274.404 176.902L274.334 176.889ZM257.451 177.522L256.011 177.987L257.213 177.91L257.451 177.522ZM265.615 177.845C266.24 177.845 266.876 177.845 267.502 177.962L268.276 177.496L267.382 177.251C266.806 177.432 266.22 177.626 265.644 177.858L265.615 177.845ZM259.288 177.07L258.802 177.819H259.308C260.134 177.417 260.98 177.088 261.841 176.837L262.168 176.734C261.214 176.788 260.263 176.905 259.318 177.083L259.288 177.07ZM263.022 175.145C264.424 175.143 265.823 175.299 267.204 175.61H267.273H267.651C269.442 175.149 271.272 175.001 273.093 175.171C273.093 174.848 273.093 174.537 273.093 174.214C273.093 171.139 272.725 167.353 270.819 166.785C268.366 166.048 264.284 170.028 260.51 175.339C261.374 175.209 262.248 175.158 263.052 175.158L263.022 175.145Z" fill="#1F2E23"/>
</g>
<defs>
<clipPath id="clip0">
<rect width="509.9" height="521" fill="white" transform="translate(0.0580139 0.203125)"/>
</clipPath>
</defs>
</svg>
