<?xml version="1.0" encoding="utf-8"?><svg viewBox="0 0 510 522" xmlns="http://www.w3.org/2000/svg" xmlns:xlink="http://www.w3.org/1999/xlink"><style>:root>svg{display:none}:root>svg:target{display:block}</style><svg fill="none" viewBox="0 0 510 522" id="mind" xmlns="http://www.w3.org/2000/svg"><g clip-path="url(#aclip0)"><path d="M226.495.203h1.748l5.531 18.478h-1.668l-1.311-4.264h-6.952l-1.251 4.238h-1.689L226.495.203zm3.754 12.314l-2.92-9.73-2.821 9.756 5.741-.026zM241.898 19.818h1.639c.161.788.534 1.476 1.052 1.936.518.46 1.145.663 1.769.57 2.125 0 3.158-1.9 3.158-4.51v-1.291c-.388.647-.89 1.163-1.464 1.503a3.136 3.136 0 01-1.833.448 3.824 3.824 0 01-1.819-.55 4.982 4.982 0 01-1.511-1.426 6.665 6.665 0 01-.964-2.08 7.83 7.83 0 01-.265-2.405 7.83 7.83 0 01.265-2.404c.211-.77.539-1.478.964-2.08A4.98 4.98 0 01244.4 6.1a3.825 3.825 0 011.819-.548 3.191 3.191 0 011.854.457c.581.344 1.089.865 1.482 1.52V5.797h1.46V17.66c0 3.876-1.678 6.46-4.657 6.46-2.493-.012-4.132-1.95-4.46-4.302zm1.321-7.857c-.05.582-.005 1.171.132 1.729s.363 1.072.663 1.508c.299.436.667.785 1.078 1.025.41.239.855.362 1.305.362.45 0 .895-.123 1.306-.362.411-.24.778-.589 1.078-1.025.3-.436.526-.95.663-1.508a5.355 5.355 0 00.131-1.729 5.47 5.47 0 00-.156-1.728 4.71 4.71 0 00-.675-1.504 3.481 3.481 0 00-1.081-1.027 2.658 2.658 0 00-1.305-.38c-1.788 0-3.139 1.926-3.139 4.64zM259.874 6.664v2.054a2.79 2.79 0 00-.874-.816 2.14 2.14 0 00-1.052-.295c-1.192 0-2.205 1.06-2.205 3.876v7.25h-1.5V5.81h1.46v1.46c.228-.52.56-.949.96-1.242.401-.294.855-.44 1.314-.425.357-.015.712.072 1.039.255.328.183.621.458.858.805zM261.334 12.246c0-1.734.53-3.397 1.472-4.623.942-1.227 2.221-1.915 3.553-1.915 1.333 0 2.611.688 3.554 1.915.942 1.226 1.472 2.889 1.472 4.623 0 1.734-.53 3.397-1.472 4.623-.943 1.226-2.221 1.915-3.554 1.915-1.332 0-2.611-.689-3.553-1.915-.942-1.226-1.472-2.89-1.472-4.623zm1.54 0a5.828 5.828 0 00.149 1.883c.151.607.399 1.166.726 1.641.328.475.729.854 1.177 1.114.448.26.933.394 1.424.394.49 0 .975-.134 1.423-.394.448-.26.849-.64 1.177-1.114a5.018 5.018 0 00.726-1.64 5.856 5.856 0 00.15-1.884 5.856 5.856 0 00-.15-1.884 5.019 5.019 0 00-.726-1.64 3.713 3.713 0 00-1.177-1.115 2.826 2.826 0 00-1.423-.394c-.491 0-.976.135-1.424.394-.448.26-.849.64-1.177 1.114a5.04 5.04 0 00-.726 1.641 5.828 5.828 0 00-.149 1.884zM274.424 5.798l2.324 10.776 2.383-10.776h1.987l2.324 10.776 2.333-10.776h1.639l-2.979 12.921h-1.858l-2.453-10.686-2.433 10.673h-1.887l-2.979-12.92 1.599.012zM289.152 1.65c0-.39.119-.765.332-1.041.212-.277.5-.432.801-.432.3 0 .588.155.8.432.213.276.332.65.332 1.041 0 .391-.119.766-.332 1.042-.212.276-.5.431-.8.431-.301 0-.589-.155-.801-.431a1.72 1.72 0 01-.332-1.042zm1.897 17.056h-1.5V5.786h1.5v12.92zM294.297 5.798h1.459v1.499c.384-.605.871-1.085 1.423-1.402a3.097 3.097 0 011.756-.42c2.472 0 3.913 2.055 3.913 5.724v7.507h-1.5v-7.675c0-2.416-.993-3.734-2.553-3.734-1.986 0-2.979 1.977-2.979 5.026v6.383h-1.5l-.019-12.908zM305.648 19.818h1.639c.179 1.37 1.192 2.506 2.83 2.506 2.136 0 3.168-1.9 3.168-4.51v-1.291c-.392.643-.897 1.156-1.472 1.496a3.191 3.191 0 01-1.835.455 3.825 3.825 0 01-1.818-.55 4.98 4.98 0 01-1.511-1.427 6.665 6.665 0 01-.964-2.08 7.83 7.83 0 01-.265-2.404 7.83 7.83 0 01.265-2.404c.211-.77.539-1.478.964-2.08A4.98 4.98 0 01308.16 6.1a3.824 3.824 0 011.818-.549c.639-.039 1.275.12 1.857.464.582.344 1.093.862 1.49 1.513V5.798h1.46V17.66c0 3.876-1.688 6.46-4.668 6.46-2.512-.013-4.171-1.95-4.469-4.302zm1.291-7.857a5.36 5.36 0 00.148 1.711c.14.551.368 1.058.668 1.487.299.43.665.773 1.073 1.008.407.235.848.356 1.294.356.446 0 .887-.121 1.295-.356a3.384 3.384 0 001.073-1.008c.3-.43.527-.936.668-1.487.14-.55.19-1.133.147-1.71a5.37 5.37 0 00-.117-1.75 4.655 4.655 0 00-.661-1.53 3.427 3.427 0 00-1.085-1.043 2.6 2.6 0 00-1.32-.37c-.455 0-.904.126-1.319.37a3.42 3.42 0 00-1.086 1.042 4.633 4.633 0 00-.66 1.532 5.397 5.397 0 00-.118 1.748zM231.252 55.907c-1.679 0-2.801-.995-2.801-3.877v-7.3h-1.986v-1.783h1.986v-2.908l1.5-1.847v4.755h2.721v1.783h-2.721v7.042c0 1.576.347 2.352 1.499 2.352.427.006.848-.132 1.222-.4v1.77c-.435.305-.926.449-1.42.413zM234.182 49.394c.033-1.282.355-2.524.927-3.57.572-1.046 1.368-1.85 2.289-2.311a3.941 3.941 0 012.889-.283c.963.276 1.843.915 2.529 1.838.686.922 1.148 2.087 1.328 3.35a8.365 8.365 0 01-.313 3.746c-.384 1.182-1.028 2.19-1.851 2.9-.822.709-1.786 1.088-2.773 1.088a4.078 4.078 0 01-1.958-.528 5.256 5.256 0 01-1.647-1.475 7.061 7.061 0 01-1.079-2.191 8.352 8.352 0 01-.341-2.564zm1.539 0a5.856 5.856 0 00.15 1.884 5.02 5.02 0 00.726 1.64c.328.475.729.855 1.177 1.115.448.26.932.394 1.423.394.49 0 .975-.134 1.423-.394.448-.26.849-.64 1.177-1.114a5.02 5.02 0 00.726-1.641 5.856 5.856 0 00.15-1.884 5.855 5.855 0 00-.15-1.883 5.02 5.02 0 00-.726-1.64 3.713 3.713 0 00-1.177-1.115 2.827 2.827 0 00-1.423-.394c-.491 0-.975.134-1.423.394-.448.26-.849.64-1.177 1.114a5.02 5.02 0 00-.726 1.641 5.855 5.855 0 00-.15 1.883zM246.358 50.66v-2.054h5.432v2.055h-5.432zM253.955 49.395c0-3.735 1.927-6.771 4.718-6.771a3.445 3.445 0 011.856.49c.582.342 1.099.85 1.51 1.487v-7.223h1.5v18.477h-1.46V54.15c-.416.644-.939 1.159-1.528 1.505a3.485 3.485 0 01-1.878.497c-2.791 0-4.718-2.972-4.718-6.758zm1.539 0c0 2.778 1.232 4.935 3.258 4.935s3.327-2.157 3.327-4.935c0-2.779-1.271-4.924-3.327-4.924s-3.258 2.158-3.258 4.924zM266.22 49.394c.034-1.282.356-2.524.928-3.57.572-1.046 1.368-1.85 2.289-2.311a3.94 3.94 0 012.889-.283c.963.276 1.843.915 2.529 1.838.686.922 1.148 2.087 1.328 3.35a8.365 8.365 0 01-.313 3.746c-.385 1.182-1.028 2.19-1.851 2.9-.822.709-1.787 1.088-2.773 1.088a4.078 4.078 0 01-1.958-.528 5.256 5.256 0 01-1.647-1.475 7.04 7.04 0 01-1.079-2.191 8.383 8.383 0 01-.342-2.564zm1.54 0a5.884 5.884 0 00.149 1.884c.151.607.399 1.166.727 1.64a3.7 3.7 0 001.176 1.115c.448.26.933.394 1.424.394.49 0 .975-.134 1.423-.394.448-.26.849-.64 1.177-1.114a5.02 5.02 0 00.726-1.641 5.856 5.856 0 00.15-1.884 5.855 5.855 0 00-.15-1.883 5.02 5.02 0 00-.726-1.64 3.713 3.713 0 00-1.177-1.115 2.827 2.827 0 00-1.423-.394c-.491 0-.976.134-1.424.394a3.7 3.7 0 00-1.176 1.114 5.021 5.021 0 00-.727 1.641 5.883 5.883 0 00-.149 1.883zM286.779 55.855h-1.5V37.378h1.5v18.477zM289.629 38.8a1.816 1.816 0 01.183-.833c.123-.248.3-.442.508-.559a.903.903 0 01.662-.095c.222.054.428.194.59.4.161.207.272.472.318.76a1.9 1.9 0 01-.062.863 1.475 1.475 0 01-.42.67.967.967 0 01-.637.253.907.907 0 01-.434-.107 1.153 1.153 0 01-.369-.315 1.532 1.532 0 01-.249-.475 1.855 1.855 0 01-.09-.563zm1.887 17.055h-1.46V42.934h1.5l-.04 12.921zM298.925 50.454l-1.351-.362c-1.986-.555-2.979-1.744-2.979-3.644 0-2.584 1.757-3.876 3.644-3.876.915-.073 1.815.32 2.511 1.093.697.774 1.135 1.869 1.224 3.055h-1.46c-.091-.697-.381-1.323-.812-1.752-.431-.43-.972-.63-1.512-.561-1.301 0-2.145.762-2.145 1.9 0 .865.486 1.498 1.718 1.847l1.36.362c1.987.53 3.039 1.59 3.039 3.644 0 2.416-1.499 3.954-3.793 3.954-2.106 0-3.884-1.293-4.231-4.303h1.48c.133.79.49 1.486 1 1.95.509.464 1.134.663 1.751.556 1.479 0 2.314-.736 2.314-2.002-.01-.97-.517-1.512-1.758-1.861zM308.31 55.907c-1.679 0-2.801-.995-2.801-3.877v-7.3h-1.986v-1.783h1.986v-2.908l1.5-1.847v4.755h2.721v1.783h-2.721v7.042c0 1.576.347 2.352 1.499 2.352.427.006.848-.132 1.222-.4v1.77c-.435.305-.926.449-1.42.413zM247.887 483.77h-8.481v-18.477h1.539v16.578h6.952l-.01 1.899zM249.277 477.309c.032-1.283.353-2.526.923-3.574.571-1.048 1.367-1.853 2.287-2.317a3.945 3.945 0 012.89-.288c.964.275 1.844.913 2.531 1.835.687.923 1.151 2.087 1.332 3.35a8.374 8.374 0 01-.312 3.749c-.384 1.182-1.028 2.192-1.851 2.901-.822.71-1.787 1.089-2.774 1.089a4.063 4.063 0 01-1.958-.524 5.222 5.222 0 01-1.647-1.471 7.034 7.034 0 01-1.079-2.188 8.375 8.375 0 01-.342-2.562zm1.54 0a5.886 5.886 0 00.149 1.884c.151.607.399 1.166.727 1.641.327.474.728.854 1.176 1.114.448.26.933.394 1.424.394.49 0 .975-.134 1.423-.394.448-.26.849-.64 1.177-1.114a5.024 5.024 0 00.726-1.641 5.858 5.858 0 00.15-1.884 5.854 5.854 0 00-.15-1.883 5.024 5.024 0 00-.726-1.641 3.722 3.722 0 00-1.177-1.114 2.825 2.825 0 00-1.423-.394c-.491 0-.976.134-1.424.394-.448.26-.849.64-1.176 1.114a5.026 5.026 0 00-.727 1.641 5.882 5.882 0 00-.149 1.883zM266.161 478.356l-1.361-.362c-1.986-.555-2.979-1.744-2.979-3.644 0-2.519 1.768-3.811 3.655-3.811.918-.087 1.825.297 2.529 1.07.703.772 1.146 1.872 1.235 3.064h-1.46c-.091-.697-.38-1.325-.811-1.756-.431-.431-.972-.635-1.513-.569-1.301 0-2.155.775-2.155 1.899 0 .879.486 1.512 1.728 1.848l1.35.374c1.987.517 3.039 1.577 3.039 3.631 0 2.43-1.499 3.954-3.784 3.954-2.105 0-3.893-1.292-4.23-4.29h1.47c.14.788.5 1.479 1.01 1.94.511.461 1.134.659 1.75.554 1.48 0 2.315-.736 2.315-2.003-.04-.995-.547-1.55-1.788-1.899zM271.693 466.662a1.828 1.828 0 01.187-.829c.125-.246.302-.438.511-.553a.902.902 0 01.661-.09c.222.056.426.197.587.404.161.207.271.472.316.761a1.92 1.92 0 01-.064.86 1.471 1.471 0 01-.42.669.967.967 0 01-.636.251.903.903 0 01-.436-.108 1.152 1.152 0 01-.371-.319 1.555 1.555 0 01-.248-.479 1.851 1.851 0 01-.087-.567zm1.887 17.056h-1.5v-12.921h1.5v12.921zM276.837 470.849h1.46v1.499c.386-.602.874-1.078 1.425-1.392a3.109 3.109 0 011.753-.417c2.473 0 3.913 2.054 3.913 5.711v7.52h-1.5v-7.675c0-2.429-.993-3.747-2.552-3.747-1.986 0-2.979 1.977-2.979 5.039v6.383h-1.5l-.02-12.921zM288.189 484.868h1.638c.179 1.37 1.192 2.507 2.841 2.507 2.125 0 3.158-1.899 3.158-4.509v-1.293c-.392.644-.897 1.157-1.472 1.496a3.18 3.18 0 01-1.835.455c-1.317 0-2.58-.68-3.511-1.892-.932-1.211-1.455-2.855-1.455-4.568 0-1.714.523-3.357 1.455-4.568.931-1.212 2.194-1.893 3.511-1.893a3.197 3.197 0 011.86.455c.582.344 1.093.866 1.487 1.522v-1.667h1.46v11.862c0 3.876-1.679 6.461-4.658 6.461-2.513-.065-4.161-1.9-4.479-4.368zm1.311-7.856a5.356 5.356 0 00.147 1.711c.141.551.368 1.057.668 1.487.3.43.665.773 1.073 1.008.408.235.849.356 1.295.356.446 0 .887-.121 1.294-.356a3.371 3.371 0 001.073-1.008c.3-.43.528-.936.668-1.487.14-.55.191-1.133.148-1.711a5.4 5.4 0 00-.118-1.749 4.64 4.64 0 00-.66-1.531 3.41 3.41 0 00-1.086-1.042 2.591 2.591 0 00-1.319-.37c-.455 0-.905.126-1.319.37a3.41 3.41 0 00-1.086 1.042 4.64 4.64 0 00-.66 1.531 5.344 5.344 0 00-.118 1.749zM217 508.01h1.46v1.499c.323-.592.755-1.068 1.257-1.384a2.676 2.676 0 011.613-.425 2.62 2.62 0 011.685.507c.515.367.942.912 1.235 1.574.342-.675.813-1.222 1.367-1.586a2.89 2.89 0 011.791-.495c2.612 0 3.794 2.055 3.794 5.712v7.52h-1.499v-7.676c0-2.429-.815-3.747-2.314-3.747-1.5 0-2.553 1.59-2.553 4.355v7.068h-1.499v-7.546c0-2.585-.805-3.877-2.245-3.877-1.639 0-2.592 1.615-2.592 4.355v7.068H217V508.01zM233.834 514.471c.031-1.283.352-2.527.923-3.574.571-1.048 1.366-1.854 2.287-2.317a3.944 3.944 0 012.89-.289c.964.276 1.844.914 2.531 1.836s1.15 2.087 1.332 3.349a8.372 8.372 0 01-.312 3.749c-.385 1.183-1.028 2.192-1.851 2.902s-1.788 1.088-2.775 1.089a4.078 4.078 0 01-1.955-.527 5.259 5.259 0 01-1.646-1.472 7.07 7.07 0 01-1.08-2.186 8.39 8.39 0 01-.344-2.56zm1.539 0c.056.881.308 1.721.725 2.418.417.697.981 1.222 1.623 1.509a2.734 2.734 0 001.993.108c.659-.217 1.254-.678 1.714-1.328.461-.65.765-1.46.877-2.331a5.81 5.81 0 00-.246-2.576c-.272-.809-.72-1.497-1.288-1.981-.568-.484-1.233-.741-1.912-.742a2.84 2.84 0 00-1.403.386 3.696 3.696 0 00-1.166 1.085 4.975 4.975 0 00-.736 1.601 5.884 5.884 0 00-.181 1.851zM246.596 508.011h1.46v1.498c.324-.592.758-1.069 1.261-1.385a2.68 2.68 0 011.619-.424c.585-.033 1.166.144 1.679.511.513.367.939.91 1.231 1.57.345-.674.818-1.22 1.373-1.584a2.917 2.917 0 011.795-.497c2.612 0 3.784 2.055 3.784 5.712v7.52h-1.53v-7.675c0-2.43-.804-3.748-2.304-3.748-1.499 0-2.552 1.59-2.552 4.355v7.068h-1.5v-7.546c0-2.584-.814-3.877-2.254-3.877-1.639 0-2.592 1.616-2.592 4.355v7.068h-1.5l.03-12.921zM272.696 515.066h-7.717a5.393 5.393 0 00.231 1.661c.162.528.404 1.009.712 1.413a3.35 3.35 0 001.079.938c.405.216.838.323 1.275.316.599.029 1.19-.19 1.686-.627s.873-1.068 1.075-1.802h1.559c-.231 1.248-.788 2.353-1.576 3.126-.788.773-1.758 1.166-2.744 1.112-2.87 0-4.836-2.739-4.836-6.667s1.757-6.848 4.717-6.848c3.287 0 4.559 3.501 4.559 6.46 0 .465-.02.918-.02.918zm-4.489-5.531c-.795-.011-1.562.375-2.142 1.08-.581.705-.931 1.674-.977 2.706h6.098a4.773 4.773 0 00-.222-1.474c-.15-.467-.37-.89-.649-1.243a2.922 2.922 0 00-.97-.814 2.308 2.308 0 00-1.138-.255zM275.477 508.01h1.459v1.499c.386-.601.874-1.078 1.426-1.392a3.113 3.113 0 011.753-.417c2.472 0 3.912 2.055 3.912 5.712v7.52h-1.499v-7.676c0-2.429-.993-3.747-2.553-3.747-1.986 0-2.979 1.99-2.979 5.04v6.383h-1.5l-.019-12.922zM290.453 520.932c-1.678 0-2.791-1.008-2.791-3.877v-7.326h-1.986v-1.719h1.986v-2.894l1.5-1.848v4.742h2.711v1.797h-2.711v7.042c0 1.576.338 2.338 1.49 2.338.426.007.846-.126 1.221-.387v1.757a2.11 2.11 0 01-1.42.375zM302.321 520.932h-1.46v-1.525c-.373.601-.85 1.078-1.392 1.393a3.01 3.01 0 01-1.726.416c-2.553 0-3.725-2.029-3.725-5.685v-7.521h1.5v7.598c0 2.442.844 3.773 2.433 3.773 1.917 0 2.871-1.925 2.871-4.987v-6.384h1.499v12.922zM305.579 508.011h1.46v1.498c.324-.592.758-1.069 1.261-1.385a2.679 2.679 0 011.619-.424c.586-.035 1.169.14 1.684.507.515.367.943.912 1.236 1.574.341-.675.812-1.221 1.366-1.586a2.893 2.893 0 011.792-.495c2.612 0 3.784 2.055 3.784 5.712v7.52h-1.5v-7.675c0-2.43-.804-3.748-2.304-3.748-1.5 0-2.552 1.59-2.552 4.355v7.068h-1.52v-7.546c0-2.584-.814-3.877-2.254-3.877-1.639 0-2.593 1.616-2.593 4.355v7.068h-1.499l.02-12.921zM410.484 224.194v8.463h-1.539V214.18h9.038v1.899h-7.499v6.216h7.052v1.899h-7.052zM428.868 226.804h-7.717a5.404 5.404 0 00.235 1.663c.163.528.406 1.008.714 1.412.309.404.676.723 1.081.938.405.215.839.323 1.277.316.597.028 1.186-.192 1.681-.629.495-.437.87-1.067 1.07-1.8h1.559c-.229 1.247-.785 2.351-1.571 3.124-.786.773-1.754 1.167-2.739 1.114-2.88 0-4.847-2.74-4.847-6.668s1.768-6.848 4.728-6.848c3.277 0 4.558 3.502 4.558 6.461-.01.439-.029.917-.029.917zm-4.539-5.53c-.795-.012-1.564.374-2.146 1.079-.582.705-.934 1.674-.983 2.707h6.168a4.788 4.788 0 00-.23-1.491 3.965 3.965 0 00-.664-1.252 2.943 2.943 0 00-.99-.809 2.3 2.3 0 00-1.155-.234zM440.328 226.804h-7.716c-.01.57.069 1.136.232 1.665.162.529.405 1.01.714 1.414.309.404.677.723 1.083.938.405.214.84.321 1.278.312.597.028 1.186-.192 1.681-.629.495-.437.87-1.067 1.07-1.8h1.559c-.229 1.247-.785 2.351-1.571 3.124-.786.773-1.755 1.167-2.739 1.114-2.851 0-4.837-2.74-4.837-6.616 0-3.876 1.768-6.848 4.718-6.848 3.287 0 4.558 3.501 4.558 6.46-.01.388-.03.866-.03.866zm-4.538-5.53c-.791-.009-1.554.375-2.133 1.074-.58.699-.933 1.66-.986 2.686h6.158c0-.511-.079-1.016-.234-1.485a3.91 3.91 0 00-.665-1.245 2.907 2.907 0 00-.989-.802 2.29 2.29 0 00-1.151-.228zM444.599 232.657h-1.5V214.18h1.5v18.477zM447.459 215.601c0-.291.067-.576.191-.818a1.26 1.26 0 01.508-.543.898.898 0 01.654-.084c.22.057.422.198.58.404.159.206.267.468.31.754.044.286.021.582-.064.851a1.462 1.462 0 01-.417.661.958.958 0 01-.629.248c-.301 0-.589-.155-.801-.431a1.72 1.72 0 01-.332-1.042zm1.878 17.056h-1.5v-12.921h1.5v12.921zM452.594 219.736h1.46v1.512c.384-.605.871-1.084 1.423-1.401a3.109 3.109 0 011.755-.421c2.473 0 3.913 2.054 3.913 5.724v7.507h-1.5v-7.623c0-2.417-.993-3.734-2.552-3.734-1.987 0-2.98 1.976-2.98 5.026v6.383h-1.499l-.02-12.973zM463.945 233.769h1.639c.161.793.537 1.484 1.059 1.945.522.461 1.155.66 1.781.561 2.126 0 3.159-1.899 3.159-4.509v-1.292c-.388.647-.89 1.163-1.465 1.503a3.13 3.13 0 01-1.833.448c-1.317 0-2.58-.681-3.511-1.892-.931-1.212-1.454-2.855-1.454-4.569 0-1.713.523-3.357 1.454-4.568.931-1.212 2.194-1.892 3.511-1.892a3.226 3.226 0 011.852.465c.58.343 1.089.862 1.485 1.512v-1.745h1.46v11.862c0 3.876-1.678 6.461-4.658 6.461-2.512 0-4.151-1.9-4.479-4.29zm1.321-7.856a5.421 5.421 0 00.146 1.711c.138.551.363 1.059.66 1.492.296.433.658.782 1.063 1.024.405.243.844.374 1.289.385.879-.12 1.691-.66 2.282-1.514s.917-1.962.917-3.111c0-1.149-.326-2.258-.917-3.112-.591-.854-1.403-1.393-2.282-1.514-1.807 0-3.158 1.873-3.158 4.639zM480.481 227.256l-1.36-.374c-1.987-.556-2.98-1.732-2.98-3.631 0-2.585 1.768-3.877 3.645-3.877.919-.086 1.828.297 2.533 1.07.705.772 1.15 1.872 1.241 3.065h-1.46c-.093-.697-.385-1.324-.818-1.753-.433-.429-.974-.629-1.516-.56-1.291 0-2.145.763-2.145 1.9 0 .865.487 1.499 1.728 1.835l1.351.374c1.986.53 3.039 1.577 3.039 3.631 0 2.429-1.5 3.954-3.784 3.954-2.106 0-3.893-1.292-4.241-4.29h1.48c.138.79.497 1.484 1.008 1.948.51.463 1.135.663 1.753.559 1.48 0 2.304-.737 2.304-2.003-.04-.956-.526-1.486-1.778-1.848zM492.071 226.197c.031-1.284.352-2.527.923-3.575.571-1.047 1.366-1.853 2.287-2.316a3.94 3.94 0 012.89-.289c.964.275 1.844.914 2.531 1.836s1.15 2.087 1.332 3.349a8.374 8.374 0 01-.312 3.749c-.384 1.183-1.028 2.192-1.851 2.901-.822.71-1.788 1.089-2.775 1.09a4.079 4.079 0 01-1.955-.528 5.234 5.234 0 01-1.646-1.472 7.058 7.058 0 01-1.08-2.186 8.387 8.387 0 01-.344-2.559zm1.539 0c.056.88.308 1.72.725 2.418.417.697.981 1.221 1.623 1.508a2.726 2.726 0 001.994.108c.658-.216 1.253-.678 1.714-1.327.46-.65.764-1.46.876-2.332a5.818 5.818 0 00-.245-2.575c-.273-.809-.721-1.498-1.289-1.981-.568-.484-1.233-.742-1.912-.742a2.838 2.838 0 00-1.39.401c-.438.256-.83.627-1.153 1.088a4.996 4.996 0 00-.725 1.595 5.866 5.866 0 00-.178 1.839h-.04zM508.458 214.18c.524-.053 1.047.105 1.5.452v1.835a2.397 2.397 0 00-1.411-.478c-1.152 0-1.757.891-1.757 2.765v.969h2.651v1.796h-2.681v11.125h-1.5v-11.125h-1.927v-1.783h1.927v-.969c0-3.269 1.44-4.587 3.198-4.587zM408.568 263.345c.033-1.283.355-2.524.927-3.57.572-1.046 1.368-1.85 2.289-2.311a3.941 3.941 0 012.889-.284c.963.277 1.843.916 2.529 1.839.686.922 1.148 2.087 1.329 3.349a8.379 8.379 0 01-.314 3.747c-.384 1.182-1.028 2.191-1.85 2.9-.823.709-1.787 1.088-2.774 1.088a4.08 4.08 0 01-1.958-.528 5.26 5.26 0 01-1.647-1.475 7.072 7.072 0 01-1.079-2.191 8.356 8.356 0 01-.341-2.564zm1.539 0c.056.881.308 1.721.725 2.418.417.698.981 1.222 1.623 1.509a2.729 2.729 0 001.993.108c.658-.216 1.254-.678 1.714-1.328.46-.649.765-1.459.877-2.331a5.804 5.804 0 00-.246-2.575c-.272-.81-.72-1.498-1.288-1.982-.569-.483-1.233-.741-1.912-.742-.484 0-.962.13-1.405.383-.443.252-.84.621-1.168 1.084a4.968 4.968 0 00-.735 1.604 5.83 5.83 0 00-.178 1.852zM427.11 256.898h1.648l-3.714 12.921h-1.579l-3.705-12.921h1.639l2.86 10.543 2.851-10.543zM439.276 263.953h-7.717a5.389 5.389 0 00.232 1.665c.163.529.406 1.01.714 1.414.309.404.677.723 1.083.937a2.6 2.6 0 001.278.312c.598.029 1.187-.191 1.681-.628.495-.437.87-1.068 1.07-1.801h1.559c-.229 1.248-.784 2.354-1.57 3.13-.786.775-1.754 1.171-2.74 1.121-2.88 0-4.846-2.752-4.846-6.68s1.767-6.848 4.727-6.848c3.277 0 4.558 3.501 4.558 6.46 0 .478-.029.918-.029.918zm-4.529-5.531c-.797-.011-1.567.377-2.149 1.084-.583.708-.934 1.68-.979 2.715h6.167a4.786 4.786 0 00-.227-1.495 3.976 3.976 0 00-.664-1.256 2.925 2.925 0 00-.991-.812 2.307 2.307 0 00-1.157-.236zM447.688 257.789v2.029a2.786 2.786 0 00-.87-.815 2.13 2.13 0 00-1.047-.296c-1.202 0-2.215 1.059-2.215 3.876v7.249h-1.5v-12.921h1.46v1.473c.228-.52.56-.949.961-1.242.4-.294.854-.441 1.314-.425.357-.014.712.075 1.04.261.328.185.62.462.857.811zM450.727 256.898l2.333 10.776 2.324-10.776h1.987l2.334 10.776 2.333-10.776h1.639l-2.979 12.921h-1.808l-2.453-10.673-2.513 10.66h-1.877l-2.979-12.921 1.659.013zM465.842 251.329h1.5v7.068c.375-.606.855-1.086 1.4-1.403a3.02 3.02 0 011.738-.419c2.473 0 3.913 2.054 3.913 5.724v7.507h-1.499v-7.675c0-2.416-.994-3.734-2.553-3.734-1.986 0-2.979 1.977-2.979 5.026v6.383h-1.52v-18.477zM486.271 263.953h-7.726a5.378 5.378 0 00.235 1.663c.163.528.406 1.008.714 1.412a3.38 3.38 0 001.081.938c.405.215.839.322 1.277.315.597.029 1.186-.191 1.681-.628.495-.437.869-1.068 1.07-1.801h1.559c-.229 1.248-.784 2.354-1.57 3.13-.786.775-1.755 1.171-2.74 1.121-2.88 0-4.847-2.752-4.847-6.68s1.768-6.848 4.727-6.848c3.278 0 4.559 3.501 4.559 6.46 0 .478-.02.918-.02.918zm-4.539-5.531c-.796-.011-1.566.377-2.149 1.084-.582.708-.933 1.68-.979 2.715h6.168a4.787 4.787 0 00-.228-1.495 3.974 3.974 0 00-.663-1.256 2.934 2.934 0 00-.991-.812 2.31 2.31 0 00-1.158-.236zM490.532 269.806h-1.5v-18.477h1.5v18.477zM493.759 256.898h1.46v1.499c.323-.596.756-1.076 1.26-1.395a2.664 2.664 0 011.621-.427c.584-.033 1.165.143 1.678.51.513.367.939.91 1.231 1.57.345-.674.818-1.219 1.373-1.584a2.912 2.912 0 011.796-.496c2.612 0 3.783 2.054 3.783 5.724v7.507h-1.499v-7.675c0-2.416-.805-3.734-2.304-3.734-1.5 0-2.563 1.524-2.563 4.341v7.068h-1.489v-7.533c0-2.584-.815-3.876-2.255-3.876-1.638 0-2.592 1.602-2.592 4.341v7.068h-1.5v-12.908zM19.404 224.788l-1.608-.426c-2.185-.582-4.152-2.029-4.152-5.039 0-3.321 2.374-5.169 4.867-5.169 1.289-.117 2.561.436 3.537 1.539.976 1.102 1.575 2.663 1.667 4.34h-1.54a5.422 5.422 0 00-.37-1.664 4.377 4.377 0 00-.836-1.349 3.227 3.227 0 00-1.172-.823 2.638 2.638 0 00-1.326-.169c-1.927 0-3.287 1.227-3.287 3.178 0 1.951 1.28 2.688 2.979 3.166l1.5.401c2.631.684 4.28 2.235 4.28 5.168 0 2.933-1.907 5.272-5.085 5.272-1.417.127-2.816-.468-3.902-1.659-1.086-1.191-1.774-2.885-1.918-4.724h1.54c.134 1.344.66 2.568 1.47 3.42.81.852 1.842 1.265 2.88 1.154 1.986 0 3.525-1.137 3.525-3.321-.01-1.977-1.31-2.829-3.049-3.295zM26.297 215.989c0-.294.067-.581.192-.826.126-.244.304-.434.513-.547a.904.904 0 01.66-.085c.222.058.425.199.585.407.16.208.268.473.313.761.044.288.021.587-.065.859a1.468 1.468 0 01-.421.666.963.963 0 01-.635.251.906.906 0 01-.439-.11 1.154 1.154 0 01-.372-.322 1.555 1.555 0 01-.247-.483 1.87 1.87 0 01-.084-.571zm1.887 17.056h-1.5v-12.921h1.5v12.921zM34.907 233.032c-1.678 0-2.79-.995-2.79-3.876v-7.327H30.13v-1.783h1.987v-2.907l1.5-1.848v4.755h2.71v1.783h-2.71v7.081c0 1.577.337 2.352 1.499 2.352.424.005.841-.133 1.212-.401v1.771c-.436.301-.928.44-1.42.4zM42.614 233.032c-1.678 0-2.79-.995-2.79-3.876v-7.327h-1.987v-1.783h1.986v-2.907l1.49-1.848v4.755h2.721v1.783h-2.72v7.081c0 1.577.347 2.352 1.499 2.352.427.007.848-.132 1.221-.401v1.771c-.435.301-.927.44-1.42.4zM45.852 215.989c0-.295.067-.582.193-.827s.305-.435.514-.547a.902.902 0 01.662-.083c.222.059.425.202.585.411.159.209.267.475.31.764.043.289.019.588-.07.859a1.462 1.462 0 01-.424.665.968.968 0 01-.638.244.91.91 0 01-.435-.114 1.158 1.158 0 01-.369-.322 1.565 1.565 0 01-.245-.482 1.874 1.874 0 01-.083-.568zm1.887 17.056h-1.5v-12.921h1.49l.01 12.921zM50.996 220.072h1.46v1.499c.384-.605.871-1.085 1.423-1.402a3.1 3.1 0 011.755-.42c2.473 0 3.913 2.054 3.913 5.724v7.507h-1.5v-7.662c0-2.429-.992-3.747-2.552-3.747-1.986 0-2.98 1.977-2.98 5.039v6.37h-1.519v-12.908zM62.348 234.079h1.639c.178 1.369 1.191 2.507 2.83 2.507 2.135 0 3.168-1.9 3.168-4.51v-1.292c-.392.644-.897 1.157-1.472 1.496a3.196 3.196 0 01-1.835.455c-1.317 0-2.58-.681-3.511-1.892-.931-1.212-1.455-2.855-1.455-4.569 0-1.713.523-3.356 1.455-4.568.931-1.212 2.194-1.892 3.511-1.892a3.24 3.24 0 011.857.463c.582.344 1.092.863 1.49 1.514v-1.654h1.46v11.861c0 3.877-1.689 6.461-4.668 6.461-2.503-.077-4.191-1.964-4.469-4.38zm1.271-7.843a5.35 5.35 0 00.148 1.711c.14.55.368 1.057.667 1.486.3.43.666.773 1.073 1.008.408.235.85.356 1.295.356.446 0 .887-.121 1.295-.356a3.382 3.382 0 001.073-1.008c.3-.429.527-.936.668-1.486a5.35 5.35 0 00.147-1.711 5.376 5.376 0 00-.118-1.749 4.638 4.638 0 00-.66-1.532 3.424 3.424 0 00-1.086-1.042 2.6 2.6 0 00-1.319-.369 2.6 2.6 0 00-1.319.369 3.424 3.424 0 00-1.086 1.042 4.638 4.638 0 00-.66 1.532 5.376 5.376 0 00-.118 1.749zM80.364 226.52c.033-1.283.355-2.525.927-3.571.572-1.046 1.368-1.85 2.289-2.311a3.94 3.94 0 012.889-.283c.963.276 1.843.916 2.529 1.838.686.923 1.148 2.088 1.328 3.349a8.377 8.377 0 01-.313 3.748c-.385 1.181-1.028 2.19-1.85 2.899-.823.709-1.787 1.088-2.774 1.089a4.08 4.08 0 01-1.958-.529 5.26 5.26 0 01-1.647-1.475 7.054 7.054 0 01-1.079-2.191 8.369 8.369 0 01-.341-2.563zm1.539 0c.056.88.308 1.72.725 2.418.417.697.98 1.221 1.623 1.508a2.724 2.724 0 001.993.108c.658-.216 1.254-.677 1.714-1.327.46-.65.765-1.46.877-2.331a5.813 5.813 0 00-.246-2.576c-.272-.809-.72-1.498-1.288-1.981-.569-.484-1.233-.742-1.912-.742a2.81 2.81 0 00-1.405.382c-.443.252-.84.622-1.168 1.084a4.979 4.979 0 00-.735 1.604 5.837 5.837 0 00-.178 1.853zM93.115 220.072h1.46v1.499c.387-.605.876-1.084 1.43-1.401a3.122 3.122 0 011.758-.421c2.463 0 3.904 2.054 3.904 5.724v7.507h-1.5v-7.662c0-2.429-.993-3.747-2.552-3.747-1.987 0-2.98 1.977-2.98 5.039v6.37h-1.52v-12.908zM114.438 233.032c-1.688 0-2.8-.995-2.8-3.876v-7.327h-1.987v-1.783h1.987v-2.907l1.499-1.848v4.755h2.722v1.783h-2.722v7.081c0 1.577.348 2.352 1.5 2.352a2.03 2.03 0 001.222-.401v1.771c-.436.301-.928.44-1.421.4zM118.113 214.503h1.5v7.068c.375-.605.855-1.086 1.4-1.403a3.027 3.027 0 011.738-.419c2.473 0 3.913 2.054 3.913 5.724v7.507h-1.47v-7.662c0-2.429-.993-3.747-2.552-3.747-1.987 0-2.98 1.977-2.98 5.039v6.37h-1.499l-.05-18.477zM138.532 227.127h-7.717a5.42 5.42 0 00.224 1.68c.162.534.405 1.021.715 1.429.31.409.681.731 1.09.947a2.62 2.62 0 001.288.312c.6.031 1.191-.188 1.687-.625.497-.437.873-1.07 1.074-1.805h1.56c-.23 1.251-.786 2.359-1.574 3.134-.789.776-1.759 1.171-2.747 1.117-2.87 0-4.836-2.739-4.836-6.667s1.758-6.861 4.717-6.861c3.288 0 4.559 3.502 4.559 6.46l-.04.879zm-4.539-5.53c-.796-.012-1.564.377-2.145 1.085-.581.707-.93 1.68-.973 2.714h6.157a4.745 4.745 0 00-.224-1.498 3.965 3.965 0 00-.663-1.258 2.916 2.916 0 00-.993-.811 2.279 2.279 0 00-1.159-.232zM8.003 265.969h1.52c-.213 1.302-.774 2.465-1.583 3.281-.809.816-1.814 1.233-2.837 1.176-1.34-.076-2.605-.822-3.532-2.082-.927-1.26-1.445-2.937-1.445-4.682 0-1.744.518-3.422 1.445-4.682.927-1.26 2.193-2.006 3.532-2.082 1.042-.032 2.058.416 2.87 1.265.813.849 1.368 2.044 1.57 3.374h-1.64c-.16-.825-.534-1.552-1.059-2.06-.524-.508-1.167-.767-1.82-.731-.947.109-1.828.676-2.47 1.588-.642.912-.998 2.104-.998 3.341s.356 2.429.998 3.341c.642.912 1.523 1.479 2.47 1.588.654.075 1.307-.147 1.85-.627.543-.481.942-1.19 1.13-2.008zM11.45 263.682c.03-1.284.352-2.527.922-3.575.571-1.047 1.367-1.853 2.287-2.317a3.944 3.944 0 012.89-.288c.964.275 1.845.914 2.532 1.836.686.922 1.15 2.087 1.33 3.349a8.374 8.374 0 01-.31 3.749c-.385 1.182-1.029 2.192-1.852 2.901-.822.71-1.787 1.089-2.774 1.089a4.078 4.078 0 01-1.954-.531 5.252 5.252 0 01-1.645-1.472 7.053 7.053 0 01-1.08-2.184 8.375 8.375 0 01-.347-2.557zm1.539 0c.058.879.311 1.718.729 2.414.418.695.982 1.217 1.625 1.502a2.73 2.73 0 001.992.104c.657-.218 1.252-.681 1.711-1.331.46-.65.763-1.46.874-2.331a5.81 5.81 0 00-.247-2.573c-.272-.809-.72-1.497-1.288-1.98-.568-.483-1.232-.741-1.91-.741a2.814 2.814 0 00-1.414.375 3.675 3.675 0 00-1.177 1.086 4.964 4.964 0 00-.739 1.612 5.836 5.836 0 00-.176 1.863h.02zM32.425 270.129h-1.46v-1.525c-.37.601-.842 1.08-1.381 1.397a2.998 2.998 0 01-1.718.425c-2.552 0-3.724-2.028-3.724-5.698v-7.507h1.49v7.585c0 2.455.853 3.773 2.433 3.773 1.926 0 2.88-1.926 2.88-4.988v-6.37h1.5l-.02 12.908zM43.041 265.969h1.56c-.213 1.302-.774 2.465-1.583 3.281-.809.816-1.814 1.233-2.837 1.176-1.34-.076-2.605-.822-3.532-2.082-.927-1.26-1.445-2.937-1.445-4.682 0-1.744.518-3.422 1.445-4.682.927-1.26 2.192-2.006 3.532-2.082 1.041-.032 2.058.416 2.87 1.265.813.849 1.368 2.044 1.57 3.374h-1.65c-.155-.816-.521-1.538-1.036-2.045-.515-.508-1.148-.771-1.794-.746-.947.109-1.828.676-2.47 1.588-.641.912-.997 2.104-.997 3.341s.356 2.429.998 3.341c.641.912 1.522 1.479 2.47 1.588.64.05 1.275-.183 1.802-.661.526-.479.913-1.174 1.097-1.974zM47.123 251.652h1.5v7.068c.375-.605.855-1.086 1.4-1.403a3.026 3.026 0 011.738-.419c2.473 0 3.913 2.054 3.913 5.724v7.507h-1.5v-7.623c0-2.429-.993-3.747-2.552-3.747-1.986 0-2.98 1.977-2.98 5.039v6.37h-1.519v-18.516zM64.533 263.682c0-3.748 1.917-6.784 4.717-6.784a3.447 3.447 0 011.856.49c.583.342 1.1.85 1.511 1.487v-7.223h1.49v18.477h-1.45v-1.705c-.417.643-.94 1.156-1.53 1.503a3.51 3.51 0 01-1.877.5c-2.8 0-4.717-3.011-4.717-6.745zm1.54 0c0 2.765 1.23 4.923 3.257 4.923 2.026 0 3.327-2.158 3.327-4.923 0-2.766-1.281-4.936-3.327-4.936-2.046 0-3.258 2.158-3.258 4.936zM86.114 264.289h-7.717c-.01.568.07 1.132.232 1.66a4.49 4.49 0 00.712 1.409c.308.403.675.721 1.079.935a2.6 2.6 0 001.274.311c.603.037 1.198-.179 1.7-.616.5-.438.88-1.073 1.081-1.813h1.56c-.23 1.251-.786 2.358-1.575 3.134-.788.775-1.758 1.17-2.746 1.117-2.87 0-4.836-2.739-4.836-6.667s1.757-6.861 4.717-6.861c3.277 0 4.559 3.514 4.559 6.46-.02.44-.04.931-.04.931zm-4.539-5.544c-.79-.012-1.555.372-2.136 1.071-.58.7-.931 1.662-.982 2.69h6.157c0-.511-.079-1.016-.233-1.486a3.94 3.94 0 00-.665-1.244 2.899 2.899 0 00-.989-.802 2.294 2.294 0 00-1.152-.229zM92.58 251.652c.523-.053 1.046.105 1.499.452v1.848a2.383 2.383 0 00-1.44-.478c-1.162 0-1.768.891-1.768 2.765v.982h2.652v1.783H90.87v11.125h-1.5v-11.125h-1.916v-1.783h1.926v-.982c-.01-3.269 1.43-4.587 3.198-4.587zM103.99 264.289h-7.716a5.36 5.36 0 00.228 1.662c.162.528.404 1.008.712 1.411a3.31 3.31 0 001.08.935c.406.213.84.318 1.277.307.599.032 1.19-.187 1.687-.624.497-.437.873-1.07 1.074-1.805h1.559c-.231 1.249-.788 2.356-1.576 3.131-.787.775-1.757 1.171-2.744 1.12-2.88 0-4.847-2.739-4.847-6.667s1.768-6.861 4.728-6.861c3.277 0 4.558 3.514 4.558 6.46 0 .44-.02.931-.02.931zm-4.538-5.544c-.791-.012-1.556.372-2.136 1.071-.58.7-.932 1.662-.983 2.69h6.158a4.766 4.766 0 00-.236-1.483 3.942 3.942 0 00-.666-1.243 2.922 2.922 0 00-.987-.802 2.301 2.301 0 00-1.15-.233zM112.919 268.708c-.401.571-.894 1.021-1.443 1.317a3.249 3.249 0 01-1.735.401c-1.887 0-3.566-1.188-3.566-3.799 0-2.61 1.699-3.63 3.973-3.798 2.066-.13 2.671-.763 2.671-1.835 0-1.434-1.072-2.274-2.413-2.274a1.839 1.839 0 00-.931.116 2.252 2.252 0 00-.823.579c-.241.263-.44.586-.584.95a3.81 3.81 0 00-.254 1.171h-1.42a5.965 5.965 0 01.344-1.905 4.87 4.87 0 01.902-1.567 3.575 3.575 0 011.309-.965c.483-.201.993-.269 1.497-.201 2.513 0 3.913 1.744 3.913 4.91v8.321h-1.192l-.248-1.421zm-3.059-.078c.39.045.782-.019 1.151-.188s.706-.439.989-.791c.282-.353.503-.78.648-1.253.145-.473.21-.981.191-1.489v-1.111c-.798.488-1.67.74-2.552.736-1.808.129-2.612.84-2.612 2.029s.914 2.067 2.185 2.067zM120.844 270.181c-1.678 0-2.801-.995-2.801-3.877v-7.339h-1.986v-1.783h1.986v-2.907l1.5-1.835v4.742h2.721v1.783h-2.721v7.042c0 1.59.348 2.352 1.5 2.352a2.03 2.03 0 001.221-.401v1.771a2.2 2.2 0 01-1.42.452zM133.139 264.289h-7.717c-.009.569.07 1.134.233 1.663.163.528.406 1.008.714 1.411.309.403.678.721 1.083.934.406.213.84.318 1.278.307.597.031 1.187-.189 1.682-.626.495-.437.87-1.069 1.069-1.803h1.559c-.228 1.25-.782 2.357-1.568 3.133-.787.775-1.756 1.171-2.742 1.118-2.88 0-4.847-2.739-4.847-6.667s1.768-6.861 4.718-6.861c3.287 0 4.558 3.514 4.558 6.46-.02.44-.02.931-.02.931zm-4.538-5.544c-.795-.005-1.561.386-2.141 1.092-.58.707-.93 1.676-.978 2.707h6.158a4.752 4.752 0 00-.229-1.513 3.925 3.925 0 00-.676-1.267 2.879 2.879 0 00-1.01-.807 2.292 2.292 0 00-1.174-.212h.05zM135.304 263.682c0-3.748 1.927-6.784 4.718-6.784a3.448 3.448 0 011.856.49c.583.342 1.099.85 1.51 1.487v-7.223h1.5v18.477h-1.46v-1.705c-.417.643-.939 1.156-1.529 1.503a3.51 3.51 0 01-1.877.5c-2.791 0-4.718-3.011-4.718-6.745zm1.54 0c0 2.765 1.231 4.923 3.257 4.923s3.327-2.158 3.327-4.923c0-2.766-1.271-4.936-3.327-4.936s-3.257 2.158-3.257 4.936zM339.783 478.795c22.723-11.215 45.396-27.638 64.067-50.186 28.96-34.978 49.459-81.404 54.623-131.513-.059-2.39-1.122-2.778-2.979-2.726-1.857.051-2.225 1.072-2.145 2.713-2.791 30.675-11.789 60.614-24.094 85.655-4.112 8.359-8.728 16.279-13.805 23.685-9.875 14.373-21.123 27.044-33.469 37.705-10.418 9.044-32.188 22.56-43.837 28.62l1.639 6.047zM80.681 310.702c5.78 28.039 16.705 60.472 29.368 83.213 13.431 24.093 30.287 44.612 49.657 60.446 13.767 11.301 28.679 20.047 44.304 25.985 2.086.762 2.751-5.091 0-6.073-37.183-14.394-70.871-46.517-92.462-87.413-11.073-21.01-21.005-53.429-26.219-79.983l-4.648 3.825zm259.827-275.87c27.971 11.689 53.286 32.196 73.691 59.697 7.458 9.949 12.325 19.575 18.085 31.075 6.964 14.059 12.565 29.184 16.675 45.031l6.416-2.235c-14.769-50.82-45.784-98.021-81.835-122.65-9.804-6.961-20.143-12.561-30.848-16.706-6.286-2.352-5.214-1.719-5.899 0-.685 1.718-.844 3.889 3.715 5.788zm-155.835-3.075c-5.621 3.127-16.953 9.833-22.176 14.136-18.791 15.467-35.972 31.838-50.74 53.804-14.37 21.217-26.636 42.938-33.37 69.982a225.898 225.898 0 00-2.463 11.035c-.566 2.687 1.986 5.905 4.46 0 3.038-14.214 7.478-25.042 13.457-37.55 13.477-28.116 30.032-53.558 50.65-73.186 11.083-10.582 28.394-24.925 40.917-31.915" fill="#EAEAEA"/><path d="M448.144 159.135c1.202 3.799 1.311 8.115.626 7.753-1.072-.556-6.584-6.461-15.125-10.453-2.811-1.292-5.731-1.628-5.473.284.11 1.15 1.311 2.274 2.731 3.372 1.421 1.099 3.139 2.132 4.201 2.83 5.614 3.42 10.89 7.711 15.712 12.779 2.91 3.076 4.251 4.226 4.837 4.032.586-.194 1.122-1.68 2.095-4.988a124.641 124.641 0 003.228-15.816 100.84 100.84 0 00.943-19.381c-.208-4.458-.854-6.81-1.43-7.986-1.827-3.398-2.443.233-2.8 5.027-.159 2.442-.338 5.168-.497 7.52-.159 2.351-.328 4.432-.507 5.595-.913 8.153-2.353 17.004-3.187 15.376-.318-.646-1.123-3.489-2.761-8.386M344.858 470.745c-2.811 1.835-6.118 2.3-5.9 1.383.348-1.434 4.509-9.045 6.903-20.403.794-3.734.824-7.546-.616-7.068-.874.22-1.649 1.861-2.384 3.786-.735 1.925-1.41 4.225-1.867 5.66-2.205 7.536-5.107 14.695-8.64 21.32-2.145 4.005-2.93 5.827-2.741 6.577.188.749 1.37 1.292 3.972 2.351a60.776 60.776 0 0012.365 2.985c4.952.744 9.957.679 14.897-.194 3.407-.594 5.155-1.602 6.019-2.442 2.473-2.584-.348-3.152-4.052-3.256l-5.8-.103c-1.838 0-3.427-.104-4.33-.246-6.317-.594-13.209-1.796-12.018-3.01.467-.453 2.583-1.719 6.227-4.2M86.65 318.235c-.685-3.993-1.35-8.438-.715-7.921.993.776 6.754 8.024 14.649 13.826 2.592 1.912 5.423 2.882 5.423.943 0-1.163-.994-2.584-2.245-3.876a175.458 175.458 0 00-3.764-3.747c-5.084-4.647-9.713-10.084-13.785-16.191-2.463-3.695-3.635-5.168-4.24-5.065-.606.104-1.321 1.409-2.722 4.445a116.745 116.745 0 00-5.263 14.86 97.59 97.59 0 00-3.496 18.904c-.388 4.432-.06 6.887.347 8.179 1.361 3.76 2.444.323 3.427-4.329.486-2.364.993-4.975 1.49-7.288.496-2.312.903-4.302 1.23-5.401 1.987-7.83 4.57-16.216 5.175-14.433.229.711.646 3.683 1.619 8.877M179.519 40.26c2.92-1.551 6.167-3.154 5.889-2.262-.427 1.395-4.965 10.027-8.004 21.126-.994 3.657-1.262 7.443.198 7.12.894-.142 1.758-1.693 2.602-3.553a67.778 67.778 0 002.195-5.453c2.638-7.293 5.95-14.14 9.862-20.39 2.384-3.786 3.267-5.53 3.119-6.293-.149-.762-1.292-1.46-3.824-2.74a63.44 63.44 0 00-12.146-4.25 46.763 46.763 0 00-14.897-1.292c-3.427.258-5.234 1.098-6.138 1.835-2.622 2.377.159 3.191 3.853 3.656l5.771.685c1.837.207 3.416.44 4.31.672 6.257 1.215 13.05 3.114 11.798 4.2-.496.4-2.681 1.447-6.455 3.566" fill="#EAEAEA"/><path d="M280.622 127.752c-46.156-9.684-92.791 27.186-99.441 78.777l-6.896 56.043c-.082 1.178-.175 2.356-.257 3.534-.081 1.179.922 1.217 2.334 1.696l10.349 3.664 2.333 1.101c0 .22.129 25.685.105 37.776 0 0-.105 6.383-.058 8.584.187 8.44 5.157 14.331 13.009 14.603 9.113.323 18.26 0 27.384.129 9.124.13 15.856 6.396 16.241 15.535.327 7.613 0 18.384 0 26.009h101.133c0-20.714.315-44.638-.082-65.378-.478-24.791 1.669-49.376 4.457-73.883 5.962-52.341-23.906-98.377-70.611-108.19z" fill="#E5DEDB"/><path d="M276.013 260.464c-3.784 0-6.724-.93-8.432-2.739-.504-.495-.91-1.138-1.184-1.877a6.505 6.505 0 01-.395-2.374c.156-2.473 1.021-4.779 2.423-6.461l-1.271.801c-5.73 3.502-10.766 5.246-15.404 5.324-5.959.09-11.302-2.585-14.768-7.456-3.466-4.871-5.383-12.404-5.363-21.966 0-13.038 3.069-24.964 8.571-33.815a12.023 12.023 0 01-1.837-2.985.952.952 0 010-.685c1.629-5.168 6.425-6.577 9.931-7.21a74.05 74.05 0 013.327-.543c2.292-1.353 4.709-2.313 7.191-2.855 4.201-6.254 9.127-11.384 12.394-10.402 2.155.646 3.238 3.657 3.208 8.968v.814a25.416 25.416 0 016.435-.982c2.836-2.033 5.909-3.444 9.098-4.174 8.253-1.473 12.513-.426 13.04 3.217.337 2.417-1.262 5.479-3.665 8.386 2.428 2.174 4.663 4.692 6.664 7.508a44.85 44.85 0 012.205 3.359c2.268 1.568 4.255 3.743 5.829 6.383 2.195 3.877 3.119 10.079.656 14.395l-.229.387v.168c0 8.619-3.396 17.392-9.007 23.491-1.828 1.982-3.828 3.678-5.959 5.052.416 1.221.633 2.541.635 3.877-.079 5.685-4.657 9.923-13.606 12.624a36.734 36.734 0 01-10.487 1.77zm-4.301-15.17l-.774.853c-1.808 2.016-3.675 4.471-3.734 7.378-.01.581.089 1.156.288 1.676.199.519.492.969.854 1.309 2.135 2.274 7.945 3.657 17.767.685 8.233-2.481 12.613-6.331 12.682-11.125a9.948 9.948 0 00-.536-3.192c-3.754 2.18-7.749 3.571-11.838 4.122-4.341.759-8.758.211-12.911-1.602a32.06 32.06 0 01-1.798-.104zm-30.588-54.385c-5.334 8.567-8.273 20.144-8.303 32.82 0 9.2 1.678 16.242 5.035 20.932 3.357 4.691 8.293 7.042 13.904 6.965 4.529-.078 9.266-1.719 14.897-5.169a51.864 51.864 0 002.573-1.654 12.558 12.558 0 01-1.659-.646c-1.69 1.513-3.518 2.745-5.442 3.67-6.535 3.127-13.716 1.486-17.877-4.083-3.972-5.324-4.747-13.219-4.688-18.917.158-10.981 2.873-21.641 7.787-30.572-2.23-.548-4.35-1.688-6.227-3.346zm7.498 3.669c-4.969 8.784-7.72 19.358-7.876 30.262 0 5.388.656 12.921 4.35 17.806 4.43 5.918 11.531 6.124 16.596 3.708a21.844 21.844 0 004.518-2.933 13.125 13.125 0 01-1.36-.943l-.874.219c-5.959 1.409-10.547.414-13.616-2.985-1.085-1.248-1.958-2.778-2.562-4.492a17.016 17.016 0 01-.944-5.457c-.1-4.382.931-8.681 2.93-12.211a53.63 53.63 0 011.321-14.484c-.514-2.708-.181-5.57.923-7.96h-.099a29.61 29.61 0 01-3.307-.53zm27.808 50.251a23.133 23.133 0 009.832.543c3.941-.499 7.796-1.807 11.421-3.876-1.912-3.649-4.501-6.609-7.528-8.606a13.828 13.828 0 01-3.307 2.584c-2.281 4.295-5.597 7.478-9.425 9.045-.278.091-.636.207-.963.31h-.03zm-3.119-1.292h.09l.268.142a11.353 11.353 0 003.416-.762c3.008-1.216 5.687-3.52 7.727-6.642a8.464 8.464 0 01-1.4.272 8.634 8.634 0 01-2.692-.117l-.606.543a54.153 54.153 0 01-6.634 6.357l-.169.207zm-4.558-.568c.566.206 1.139.374 1.718.504a23.307 23.307 0 01-1.231-.995l-.487.491zm1.47-1.538a17.32 17.32 0 001.748 1.292l.814-.646a123.673 123.673 0 016.307-6.073l-.557-.207a42.489 42.489 0 01-7.12 4.239c-.368.503-.765.982-1.162 1.421l-.03-.026zm-3.585.491c.238.155.486.284.734.426.279-.258.567-.529.845-.814l-.12-.103-1.459.491zm-16.705-21.966c-1.329 2.92-1.99 6.273-1.907 9.665.012 1.669.293 3.316.823 4.836.53 1.52 1.298 2.878 2.256 3.989 2.731 3.024 6.882 3.877 12.325 2.701a14.369 14.369 0 01-1.083-1.292 9.838 9.838 0 01-1.609-2.804c-2.641-.353-5.102-1.904-6.952-4.381-1.303-1.908-2.261-4.173-2.8-6.628a10.563 10.563 0 01-.835-.569.745.745 0 01-.188-.231.959.959 0 01-.086-.649.846.846 0 01.125-.296l.477-.736a44.927 44.927 0 01-.516-3.528l-.03-.077zm12.225 17.263c.293.565.625 1.092.994 1.576a13.042 13.042 0 001.887 1.938 22.906 22.906 0 001.877-.581 30.513 30.513 0 01-2.424-3.153c-.761.178-1.531.277-2.304.297l-.03-.077zm28.97-5.518c3.103 2.118 5.739 5.231 7.658 9.045 2.061-1.317 3.995-2.947 5.76-4.858 2.431-2.555 4.441-5.723 5.909-9.313 1.468-3.591 2.363-7.53 2.632-11.581-1.728 1.614-3.714 2.696-5.81 3.166a25.191 25.191 0 01-3.893.762.75.75 0 01-.229.297 573.002 573.002 0 00-7.945 5.686 38.205 38.205 0 01-.874 1.822 28.84 28.84 0 01-3.178 5.052l-.03-.078zm-25.166 4.962a27.457 27.457 0 002.453 3.011 28.252 28.252 0 002.394-1.008 57.173 57.173 0 003.774-5.169 17.919 17.919 0 01-1.53-1.292c-2.124 2.059-4.531 3.571-7.091 4.458zm9.693-2.442a38.283 38.283 0 01-2.056 3.024 42.918 42.918 0 003.467-2.171 7.514 7.514 0 01-.616-.349c-.209-.129-.537-.284-.795-.465v-.039zm-14.033 1.434a9.693 9.693 0 001.986 0 35.219 35.219 0 01-1.549-2.868 3.828 3.828 0 00-.536 1.602 4.49 4.49 0 00.099 1.305v-.039zm-9.196-8.825c.486 1.795 1.242 3.447 2.224 4.858 1.539 2.037 3.548 3.362 5.721 3.773a6.065 6.065 0 010-1.292c.117-1.055.497-2.031 1.082-2.778a49.234 49.234 0 01-1.609-4.212 14.749 14.749 0 01-7.418-.31v-.039zm10.626 4.845a37.758 37.758 0 001.987 3.644c2.512-.758 4.878-2.179 6.952-4.173a25.387 25.387 0 01-1.341-1.564 37.7 37.7 0 00-4.191.608c-1.2.223-2.356.74-3.407 1.524v-.039zm19.297 3.386c.331.027.662.027.993 0a8.168 8.168 0 002.761-.853 25.1 25.1 0 001.232-2.713l-.437-.143a176.627 176.627 0 00-4.549 3.748v-.039zm-2.334-.375l.239.065.615-.763-.854.698zm-3.575-1.706l.516.324c.497.297.993.568 1.48.788a48.163 48.163 0 004.449-3.812 40.655 40.655 0 00-4.469-.685 72.648 72.648 0 01-1.787 3.075l-.189.31zm12.067-1.098c-.12.323-.249.633-.378.943.288-.232.556-.478.824-.736l-.446-.207zm-14.451-.736c.417.387.854.749 1.301 1.085l.328-.53c.457-.736.884-1.473 1.301-2.222h-1.351a84.127 84.127 0 01-1.579 1.705v-.038zm10.766-.414l-.576.879.993-.788-.417-.091zm4.181-.284c.308.142.646.323.993.543a25.312 25.312 0 002.98-4.394 239.878 239.878 0 00-3.725 2.817 4.426 4.426 0 01-.248 1.073v-.039zm-27.887-3.528a47.954 47.954 0 001.321 3.412c1.209-.884 2.537-1.459 3.913-1.693a40.544 40.544 0 013.297-.517 25.725 25.725 0 01-1.5-2.481l-6.723 1.228-.308.051zm11.272 2.585c.218.245.437.491.665.723l.735-.762-1.4.039zm13.298-.091l.993.284 1.629-1.292a23.64 23.64 0 00.626-3.398 35.697 35.697 0 01-3.248 4.393v.013zm-6.485-1.292c1.668.194 3.327.478 4.966.866l.526-.582a45.256 45.256 0 003.089-6.305l-6.307 1.137a59.438 59.438 0 01-2.274 4.91v-.026zm-2.314-.194l.933.065a65.743 65.743 0 002.175-4.484 45.145 45.145 0 01-3.108 4.445v-.026zm-7.399-2.519c.516.911 1.08 1.774 1.688 2.584a40.823 40.823 0 013.973-.116 43.074 43.074 0 002.979-4.032l-8.64 1.564zm20.766-2.83a24.252 24.252 0 01-.437 4.639 391.14 391.14 0 014.589-3.437c.44-1.005.838-2.04 1.192-3.102l-4.877.879a12.83 12.83 0 01-.467 1.047v-.026zm-38.295 2.455c2.399.976 4.941 1.197 7.419.646a57.304 57.304 0 01-1.55-6.887 76.95 76.95 0 01-.377-2.584 121.295 121.295 0 00-5.681 7.869c.06.336.119.633.189.956zm6.535-10.105c.149 1.15.318 2.326.506 3.541.385 2.392.93 4.735 1.629 7.003l.626-.103 6.157-1.124c-1.375-2.908-2.309-6.132-2.751-9.497a22.73 22.73 0 01-.149-1.357 27.45 27.45 0 01-3.863-1.034 113.85 113.85 0 00-2.155 2.559v.012zm7.25-1.292c0 .285.059.582.099.892.449 3.397 1.429 6.638 2.88 9.523l10.597-1.925c1.648-2.754 2.985-5.8 3.973-9.045a28.96 28.96 0 01-1.719-1.435l-.258-.232c-5.004 2.209-10.322 2.95-15.572 2.171v.051zm31.264 6.823a41.821 41.821 0 01-.656 1.951l3.417-2.455-2.761.504zm-45.963-2.429a48.39 48.39 0 00.427 4.16 123.487 123.487 0 015.77-7.882c-.079-.749-.159-1.473-.218-2.209-1.896 1.166-3.625 2.744-5.115 4.664-.328.401-.586.827-.894 1.267h.03zm33.519-4.135a58.266 58.266 0 01-2.364 7.662l6.257-1.137c.119-.323.228-.646.338-.969-.097-.504-.217-1-.358-1.486a13.778 13.778 0 00-.844-2.197 28.124 28.124 0 01-3.059-1.873h.03zm7.498 3.876a22.14 22.14 0 01-.636 2.184l4.718-.853.079-.271a28.121 28.121 0 01-4.181-1.124l.02.064zm-1.986 1.887v.219c.313-.833.576-1.697.784-2.584h-.129c-.225.758-.45 1.525-.675 2.3l.02.065zm7.756-2.171c3.103.355 6.228.111 9.276-.724 2.277-.433 4.399-1.753 6.088-3.786-.119-6.46-2.165-13.167-5.85-19.382a50.24 50.24 0 00-2.979-2.002 86.931 86.931 0 00-9.485-5.027l-1.738.892-.566.426c.223 1.395.247 2.832.07 4.238 2.489 2.621 4.333 6.134 5.303 10.105a34.197 34.197 0 01-.169 15.195l.05.065zm-5.452-1.292c1.394.476 2.81.83 4.241 1.059a32.412 32.412 0 00.139-14.601c-.843-3.41-2.389-6.454-4.47-8.799-.181.776-.41 1.532-.685 2.261.06.271.109.53.159.788.765 4.235.9 8.621.397 12.922a16.95 16.95 0 01.169 6.37h.05zm-3.049.426l.179.543.109-.414-.288-.129zm-37.422-11.241a51.477 51.477 0 00-.923 10.414l.089-.129c1.64-2.129 3.561-3.858 5.671-5.104-1.997-1.038-3.702-2.846-4.886-5.181h.049zm39.229 10.337c0-.181.05-.349.07-.53-.04.22-.08.387-.159.555l.089-.025zm-2.721-1.293c.517.272 1.043.53 1.579.763a49.45 49.45 0 00.944-5.362c-.77-2.827-2.264-5.222-4.231-6.784-.219.189-.437.37-.656.543a35.987 35.987 0 01-.794 6.861c1.231 1.073 2.287 2.452 3.108 4.057l.05-.078zm-30.231-3.062c0 .517.089 1.034.139 1.551l.993-1.176-.218-.078-.795-.361-.119.064zm26.735.918l.755.516a10.61 10.61 0 00-.715-.723l-.04.207zm-19.197-.362c4.877.748 9.821.131 14.5-1.809-.407-.414-.785-.84-1.142-1.292a22.206 22.206 0 00-2.126-.491c-3.557 1.241-7.253 1.678-10.924 1.292a8.532 8.532 0 00-.358 2.377l.05-.077zm-3.973-.905c.904.285 1.818.517 2.731.698.017-.761.107-1.516.269-2.248-.358-.078-.716-.155-1.083-.259l-.367.104-1.55 1.705zm20.975-.439l.994.84c.027-.089.05-.179.069-.272a11.765 11.765 0 00-.943-.633l-.12.065zm27.282-14.847c2.307 4.526 3.76 9.697 4.241 15.092 1.271-3.579.417-8.153-1.281-11.164a17.582 17.582 0 00-2.97-3.85l.01-.078zm-49.925 14.705l.228.09.248-.284-.476.194zm-2.076-.931l.229.117c.975-.498 1.969-.93 2.979-1.292a17.565 17.565 0 01-3.347-1.964c.02 1.15.07 2.183.129 3.165l.01-.026zm25.703-.193l.417.284c.247-1.633.4-3.287.457-4.949a29.551 29.551 0 01-3.973 2.21l-.149.077a24.592 24.592 0 012.98 1.912.71.71 0 01.174.235.931.931 0 01.084.308l.01-.077zm-28.126-1.383c.386.315.783.604 1.192.866-.06-1.137-.1-2.261-.12-3.386l-.268-.232c-.231.93-.503 1.873-.814 2.83l.01-.078zm16.307.065c-.894 0-1.658.077-2.224.142l-.994.116a22.076 22.076 0 003.208-.181l.01-.077zm-14.053-3.437c1.619 1.326 3.394 2.3 5.254 2.881a104.332 104.332 0 0110.21-9.549c-5.483-.685-11.541 0-15.464 4.833-.01.685-.02 1.305-.01 1.912l.01-.077zm17.023-5.996c-3.33 2.64-6.534 5.54-9.594 8.683l.427-.09c2.274-3.631 6.873-2.985 8.323-2.675.873.183 1.738.424 2.592.724a18.695 18.695 0 01-.874-2.029 15.814 15.814 0 01-.884-4.535l.01-.078zm-22.545 4.51c0 .168.09.336.139.504.453 1.377 1.167 2.582 2.076 3.501 1.192-3.76 2.116-8.205 1.43-11.629h-1.112a48.306 48.306 0 00-2.533 7.624zm35.346-.905c1.393 1.233 2.565 2.842 3.437 4.716.164-2.946.01-5.908-.457-8.799a16.85 16.85 0 01-1.281 2.08 19.244 19.244 0 01-1.659 1.99l-.04.013zm-16.039 3.709c-1.27-.047-2.531.289-3.684.982l1.589-.194a28.092 28.092 0 016.614.103 24.625 24.625 0 00-2.374-.659c-.696-.152-1.4-.234-2.105-.245l-.04.013zm6.893.18l.178.078c.547-.22 1.053-.452 1.48-.659a27.172 27.172 0 004.38-2.584v-1.292c-2.364-1.381-4.854-2.362-7.409-2.921l-1.112-.245a13.84 13.84 0 00.774 4.161 15.228 15.228 0 001.748 3.45l-.039.012zm7.369-5.31l.695.517a16.54 16.54 0 001.907-2.171 15.296 15.296 0 001.748-3.114 33.578 33.578 0 00-1.599-5.169l-.606-.323c-.447.194-.874.362-1.261.478-.388.117-1.073.323-1.629.453l-1.122.684a31.276 31.276 0 011.906 8.632l-.039.013zm-27.808-5.259c-.12 1.796-.199 3.527-.249 5.168 4.599-4.716 11.282-5.026 17.023-4.044.098-1.033.319-2.04.655-2.985a74.286 74.286 0 01-17.38 1.848l-.049.013zm18.78 1.563l.467.104a27.027 27.027 0 017.041 2.661 29.363 29.363 0 00-1.539-6.925 105.413 105.413 0 00-5.919 4.147l-.05.013zm-23.547-1.809a13.33 13.33 0 00-1.202 3.967 49.085 49.085 0 011.41-3.954l-.208-.013zm23.736-1.951a9.028 9.028 0 00-.815 2.352c1.649-1.292 3.317-2.416 5.026-3.528a70.67 70.67 0 01-4.172 1.176h-.039zm-18.87.62a73.29 73.29 0 0018.165-2.041 8.483 8.483 0 011.569-1.887c-1.732-1.685-3.025-4.021-3.705-6.693a11.266 11.266 0 00-5.283-.142c-1.708.93-3.417 1.822-5.145 2.662a15.55 15.55 0 01-3.307 1.214l-.993.763c-.278.207-.546.413-.804.646v.336l.923.103c2.399.371 4.817.483 7.23.336a.522.522 0 01.425.183c.119.13.195.313.213.513a.974.974 0 01-.117.563.61.61 0 01-.382.305 52.452 52.452 0 01-8.561.982c-.059.723-.129 1.447-.129 2.157h-.099zm-1.351 0h.149c.05-.697.1-1.408.159-2.119h-.586c-.109.194-.218.401-.318.608.255.467.474.964.656 1.486l-.06.025zm33.598-1.757c.179.556.358 1.111.517 1.68.079-.336.159-.672.218-1.021-.179-.258-.427-.478-.675-.685l-.06.026zm-36.329 1.602h.06l.188-.413a2.073 2.073 0 01-.188.388l-.06.025zm-4.707-.555c.814.155 1.668.284 2.572.375l.725.064c.355-.669.743-1.308 1.162-1.912-1.212 0-2.324-.181-3.327-.31-.344.568-.702 1.154-1.073 1.757l-.059.026zm-7.548-3.463c1.873 1.614 3.989 2.693 6.207 3.166.338-.586.685-1.155 1.043-1.706-2.195-.401-3.625-.93-3.884-1.421a1.25 1.25 0 01-.088-.466c0-.162.03-.321.088-.465.209-.478.577-.801 3.506-.581.745 0 1.49.116 2.235.258a33.434 33.434 0 011.986-2.494 66.835 66.835 0 011.679-3.424 8.72 8.72 0 01.784-1.447c.288-.53.586-1.046.894-1.576-1.48.116-2.979.271-4.42.478-3.795 2.273-7.179 5.562-9.931 9.652l-.099.026zm37.262 1.15a4.76 4.76 0 00-.526.426l.854-.245-.328-.181zm10.518-1.176c.607.381 1.194.812 1.758 1.292.052-.797.028-1.6-.07-2.39-.516.4-1.082.762-1.629 1.072l-.059.026zm5.959-4.445a86.985 86.985 0 019.166 4.871l.507.323-.278-.387c-2.013-2.824-4.265-5.343-6.714-7.507a36.557 36.557 0 01-2.632 2.674l-.049.026zm-40.987 4.884h.447l.119-.155h-.745l.179.155zm26.209-.206c.3.095.606.164.913.206-.069-.155-.149-.297-.228-.452l-.685.246zm2.125-.517l.219.465 1.32-.465a7.612 7.612 0 00-1.539.013v-.013zm-7.2-5.608c.678 2.189 1.88 4.037 3.426 5.272a8.396 8.396 0 011.53-.737c-.811-1.277-1.778-2.372-2.861-3.243a9.976 9.976 0 00-2.095-1.279v-.013zm-36.18 2.662c.394.82.872 1.568 1.42 2.222 2.152-3.188 4.675-5.918 7.478-8.089h-.109c-4.817.866-7.637 2.753-8.789 5.88v-.013zm14.509 1.951c.795 0 1.609 0 2.444.116.407-.413.824-.814 1.251-1.189l.109-.155c-1.081-.082-2.118-.581-2.979-1.434-.368.401-.725.814-1.083 1.292-.357.478-.417.969-.616 1.447l.874-.077zm29.695-.607a10.015 10.015 0 013.357.581l.388-.155c-1.131-2.21-2.499-4.199-4.062-5.905a79.03 79.03 0 00-6.843-1.628c2.162 1.987 4.053 4.433 5.591 7.236.189 0 .388-.065.586-.078.199-.013.656-.039.983-.039v-.012zm1.987-4.781a30.172 30.172 0 012.9 4.703h.069l2.195-1.111a10.801 10.801 0 00-.864-2.068c-1.38-.555-2.821-1.046-4.261-1.511l-.039-.013zm6.008 2.17c.109.272.199.569.288.853l.844-.387-1.132-.466zm-35.902-.478c.937.722 2.024 1.043 3.109.918.397-.517.804-1.021 1.231-1.512a31.174 31.174 0 015.135-4.742c-.904 0-1.818-.065-2.722-.065-2.4 1.44-4.654 3.258-6.713 5.414l-.04-.013zm34.949-1.537c1.145.439 2.277.904 3.396 1.395a38.481 38.481 0 002.98-2.959 29.206 29.206 0 00-6.098-3.876c-3.239-1.489-6.655-2.224-10.091-2.171l-.804.53c2.93.672 7.896 2.468 10.656 7.094l-.039-.013zm-23.071-3.657c-2.129 1.309-4.129 2.944-5.959 4.871 2.166-1.32 4.457-2.258 6.813-2.791a117.13 117.13 0 002.98-1.692c-1.245-.147-2.51-.272-3.794-.375l-.04-.013zm-11.689 2.933c0 .065-.07.129-.1.207a33.238 33.238 0 013.973-3.321h-.318c-1.357.636-2.567 1.712-3.516 3.127l-.039-.013zm19.108-.517c.347.117.685.259.993.414a25.694 25.694 0 00-1.182-1.06l.189.646zm8.779-1.059c1.53.439 3.049.917 4.559 1.447-2.446-2.409-5.306-4.005-8.333-4.652a21.363 21.363 0 013.814 3.218l-.04-.013zm-11.838.452a9.844 9.844 0 011.728.233 22.787 22.787 0 01-.218-1.138l-1.51.905zm11.272-7.236c2.786.227 5.533.958 8.164 2.171 2.326 1.102 4.551 2.537 6.634 4.277 2.274-2.701 3.774-5.414 3.526-7.21-.169-1.189-1.649-3.735-11.7-1.951-2.284.493-4.501 1.411-6.584 2.726l-.04-.013zm-7.478 4.897c1.718.31 3.436.685 5.144 1.099a17.894 17.894 0 00-3.486-2.184c-.516.387-1.062.749-1.619 1.098l-.039-.013zm-3.973-1.602c.457.245.904.504 1.341.788 0-.413-.08-.827-.109-1.292-.338.207-.745.323-1.162.517l-.07-.013zm2.433-.517c0 .414.07.84.12 1.292l1.38-.878c-.47-.169-.948-.303-1.43-.401l-.07-.013zm-16.883.633l-1.44.465 1.202-.077.238-.388zm8.164.323c.625 0 1.261 0 1.887.117l.774-.466-.894-.245c-.576.181-1.162.375-1.738.607l-.029-.013zm-6.327-.775l-.486.749h.506a16.061 16.061 0 012.533-.982l.327-.103c-.954.054-1.905.171-2.85.349l-.03-.013zm3.734-1.925a18.89 18.89 0 014.182.465h.447a15.856 15.856 0 015.442-.439v-.957c0-3.075-.368-6.861-2.274-7.429-2.453-.737-6.535 3.243-10.309 8.554.864-.13 1.738-.181 2.542-.181l-.03-.013z" fill="#1F2E23"/></g><defs><clipPath id="aclip0"><path fill="#fff" transform="translate(.058 .203)" d="M0 0h509.9v521H0z"/></clipPath></defs></svg></svg>